<?xml version="1.0" encoding="UTF-8"?>
<!-- Created with Inkscape (http://www.inkscape.org/) -->
<svg width="300" height="300" version="1.1" viewBox="0 0 300 300" xmlns="http://www.w3.org/2000/svg" xmlns:cc="http://creativecommons.org/ns#" xmlns:dc="http://purl.org/dc/elements/1.1/" xmlns:rdf="http://www.w3.org/1999/02/22-rdf-syntax-ns#">
 <title>Throughput Focus Logo</title>
 <g transform="matrix(4.2621 0 0 4.277 -205.74 -151.12)" stroke-width=".52917">
  <path d="m100.83 43.727-0.0946 7.1965h-18.124l-4.8188 4.7248-5.3862-4.7248h-20.464v40.091l20.937-0.28319 4.5356-5.103 5.1971 5.103 18.124 0.28319v6.858l16.253-25.58zm-40.915 13.789h1.3963v3.3404c0.24825-0.29986 0.48609-0.52944 0.71365-0.68936 0.23015-0.15992 0.48501-0.23978 0.76429-0.23978 0.47064 0 0.83798 0.21182 1.1017 0.63562 0.26635 0.4238 0.39946 1.0576 0.39946 1.9012v4.3837h-1.4046v-3.3404c0-0.27187-0.0088-0.5419-0.02687-0.80977-0.0181-0.27187-0.04906-0.47151-0.09302-0.59945-0.05172-0.14793-0.12807-0.25604-0.22892-0.32401-0.09827-0.06797-0.23653-0.1018-0.41496-0.1018-0.12671 0-0.25621 0.03163-0.38809 0.0956-0.1293 0.06397-0.27014 0.16599-0.42271 0.30592v4.7739h-1.3963zm26.299 0h1.3963v3.3404c0.24825-0.29986 0.48609-0.52944 0.71365-0.68936 0.23015-0.15992 0.48501-0.23978 0.76429-0.23978 0.47064 0 0.83746 0.21182 1.1012 0.63562 0.26635 0.4238 0.39998 1.0576 0.39998 1.9012v4.3837h-1.4046v-3.3404c0-0.27187-0.0088-0.5419-0.02687-0.80977-0.0181-0.27187-0.04906-0.47151-0.09302-0.59945-0.05172-0.14793-0.12807-0.25604-0.22893-0.32401-0.09827-0.06797-0.23653-0.1018-0.41496-0.1018-0.12671 0-0.25621 0.03163-0.38809 0.0956-0.1293 0.06397-0.27014 0.16599-0.42271 0.30592v4.7739h-1.3963zm-32.215 0.40204h5.0968v1.727h-1.8035v7.2027h-1.4898v-7.2027h-1.8035zm49.177 0.26975h1.3963v1.925h1.3074v1.4635h-1.3074v2.3869c0 0.23589 2e-3 0.44162 4e-3 0.61753 3e-3 0.17592 0.0232 0.33394 0.062 0.47387 0.0362 0.13993 0.0997 0.25194 0.19017 0.3359 0.0931 0.07996 0.22723 0.11989 0.40308 0.11989 0.0724 0 0.16682-0.02387 0.28319-0.07183 0.11895-0.04798 0.20201-0.09179 0.24856-0.13178h0.11627v1.481c-0.14998 0.05997-0.30888 0.10599-0.47697 0.13798-0.16809 0.03598-0.37394 0.05374-0.61702 0.05374-0.54305 0-0.94753-0.16969-1.2139-0.50953-0.26377-0.33984-0.39584-0.9215-0.39584-1.7451v-3.1486h-0.57412v-1.4635h0.57412zm-31.574 1.7151c0.76027 0 1.3474 0.31993 1.7611 0.95963 0.41634 0.6397 0.62425 1.5135 0.62425 2.621s-0.20946 1.9808-0.62838 2.6205c-0.41634 0.6357-1.0019 0.95343-1.757 0.95343-0.7551 0-1.3422-0.31773-1.7611-0.95343-0.41634-0.6397-0.62477-1.513-0.62477-2.6205 0-1.1155 0.20998-1.9915 0.6289-2.6272 0.42151-0.6357 1.0071-0.95343 1.757-0.95343zm10.721 0.02429c0.23532 0 0.44839 0.04382 0.63975 0.13178 0.19394 0.08396 0.36987 0.20206 0.52762 0.35398l0.05064-0.30024h1.3534v5.9614c0 0.6317-0.05778 1.1635-0.17415 1.5953s-0.2794 0.76949-0.48886 1.0134c-0.20946 0.24788-0.46278 0.42587-0.76016 0.53382-0.2948 0.11195-0.6286 0.16795-1.001 0.16795-0.30256 0-0.60127-0.02774-0.89607-0.08371-0.29221-0.05598-0.54553-0.12416-0.76016-0.20412v-1.6852h0.17053c0.17067 0.10395 0.3791 0.19768 0.62477 0.28164 0.24567 0.08796 0.46545 0.13229 0.65939 0.13229 0.2586 0 0.46806-0.03824 0.62838-0.11421 0.16292-0.07196 0.28673-0.17567 0.37207-0.31161 0.08017-0.12794 0.13846-0.29205 0.17467-0.49196 0.0362-0.19991 0.05426-0.43947 0.05426-0.71934v-0.12609c-0.16809 0.2119-0.35433 0.3799-0.55862 0.50385-0.20429 0.12394-0.43181 0.18552-0.68265 0.18552-0.61029 0-1.0808-0.28338-1.4118-0.85111-0.331-0.56774-0.49661-1.4316-0.49661-2.5911 0-0.55574 0.05056-1.0354 0.15141-1.4392 0.10085-0.40381 0.24324-0.75589 0.42685-1.0557 0.17067-0.27987 0.38013-0.49778 0.62839-0.65371 0.25084-0.15593 0.50673-0.23358 0.76791-0.23358zm12.382 0c0.54305 0 0.96455 0.30775 1.2645 0.92346 0.30256 0.61571 0.45372 1.4613 0.45372 2.5368 0 0.55574-0.05572 1.0614-0.16692 1.5172-0.10861 0.45579-0.25203 0.83172-0.43047 1.1276-0.18619 0.31185-0.3972 0.54753-0.63252 0.70745-0.23532 0.15992-0.48709 0.23978-0.75602 0.23978-0.24825 0-0.45926-0.04161-0.63252-0.12557-0.17326-0.07996-0.35022-0.19417-0.53123-0.3421v2.8071h-1.3963v-9.2062h1.3963v0.70176c0.21463-0.26388 0.43287-0.4779 0.65526-0.64182 0.22498-0.16392 0.48397-0.24546 0.77618-0.24546zm-26.299 0.16175c0.04913 0 0.10434 0.0021 0.1664 0.0062 0.06206 4e-3 0.11675 0.0096 0.1633 0.01757v2.0572h-0.12402c-0.05948-0.03199-0.15544-0.05584-0.28732-0.07183-0.13188-0.01598-0.24177-0.02429-0.32969-0.02429-0.19912 0-0.37504 0.01998-0.52762 0.05995-0.15257 0.03998-0.31663 0.10817-0.49248 0.20412v4.5098h-1.3963v-6.735h1.3963v0.9896c0.30773-0.40781 0.57549-0.67731 0.80305-0.80925 0.22756-0.13594 0.43703-0.20412 0.62839-0.20412zm6.5552 0.02376h1.404v3.3409c0 0.33984 0.0067 0.62373 0.01963 0.85163 0.01551 0.22389 0.04905 0.40966 0.10077 0.55759 0.04913 0.14793 0.12291 0.25553 0.22117 0.3235 0.10085 0.06797 0.24067 0.10232 0.4191 0.10232 0.11895 0 0.25051-0.03435 0.39532-0.10232 0.14481-0.06797 0.28462-0.16779 0.41909-0.29973v-4.7739h1.3963v6.735h-1.3963v-0.74362c-0.25859 0.30386-0.4954 0.53564-0.71003 0.69556-0.21463 0.15593-0.47053 0.2341-0.76791 0.2341-0.48099 0-0.85193-0.21402-1.1131-0.64182-0.25859-0.4278-0.38809-1.0594-0.38809-1.895zm22.436 0h1.404v3.3409c0 0.33984 0.0067 0.62373 0.01963 0.85163 0.0155 0.22389 0.04905 0.40966 0.10077 0.55759 0.04913 0.14793 0.12291 0.25553 0.22118 0.3235 0.10085 0.06797 0.24015 0.10232 0.41858 0.10232 0.11895 0 0.25103-0.03435 0.39584-0.10232 0.14481-0.06797 0.28463-0.16779 0.4191-0.29973v-4.7739h1.3963v6.735h-1.3963v-0.74362c-0.2586 0.30386-0.49541 0.53564-0.71004 0.69556-0.21464 0.15593-0.47053 0.2341-0.76791 0.2341-0.48099 0-0.85193-0.21402-1.1131-0.64182-0.2586-0.4278-0.38809-1.0594-0.38809-1.895zm-25.795 1.2955c-0.13447 0-0.25468 0.02826-0.3607 0.08423-0.10344 0.05597-0.20301 0.16798-0.29869 0.3359-0.08534 0.15593-0.15395 0.36943-0.20567 0.6413-0.04913 0.27187-0.0739 0.61397-0.0739 1.0258 0 0.36783 0.02217 0.68776 0.06615 0.95963 0.04396 0.26788 0.10845 0.48358 0.19379 0.64751 0.08275 0.15593 0.18129 0.27013 0.29507 0.3421 0.11637 0.07197 0.24793 0.10749 0.39532 0.10749 0.12671 0 0.24692-0.03163 0.3607-0.0956 0.11637-0.06797 0.21491-0.17997 0.29507-0.3359 0.09051-0.17192 0.15758-0.37816 0.20154-0.61805 0.04655-0.24388 0.06976-0.57937 0.06976-1.0072 0-0.39581-0.02323-0.72793-0.06976-0.9958-0.04655-0.26788-0.11104-0.48138-0.19379-0.6413-0.08275-0.16392-0.18232-0.28033-0.29869-0.3483-0.11637-0.06797-0.24173-0.1018-0.3762-0.1018zm11.288 0.09612c-0.3672 0-0.6427 0.1636-0.8263 0.49144-0.1836 0.32385-0.27544 0.77795-0.27544 1.3617 0 0.64769 0.07739 1.0996 0.23254 1.3555 0.15774 0.25588 0.39094 0.38344 0.69866 0.38344 0.13964 0 0.27636-0.03383 0.41083-0.1018 0.13447-0.06797 0.25726-0.1578 0.36845-0.26975v-3.0525c-0.08017-0.05198-0.17819-0.0919-0.29456-0.11989-0.11637-0.03199-0.2211-0.04806-0.31419-0.04806zm11.191 0.05375c-0.13188 0-0.26757 0.03215-0.40721 0.09612-0.13964 0.05997-0.27275 0.14812-0.39946 0.26406v3.3884c0.09309 0.05597 0.19266 0.09149 0.29869 0.10749 0.10603 0.01601 0.21076 0.02429 0.31419 0.02429 0.36979 0 0.64529-0.1658 0.82631-0.49764 0.18102-0.33584 0.2713-0.83985 0.2713-1.5115 0-0.65569-0.07223-1.1314-0.21704-1.4273-0.14481-0.29586-0.37388-0.4439-0.68678-0.4439zm-26.237 11.712h4.1388v1.7275h-2.6567v1.6609h2.4629v1.7275h-2.4629v3.8142h-1.4821zm7.1567 1.9854c0.76027 0 1.3474 0.31993 1.7611 0.95963 0.41634 0.6397 0.62477 1.513 0.62477 2.6205 0 1.1075-0.20946 1.9813-0.62838 2.621-0.41634 0.6357-1.0024 0.95343-1.7575 0.95343s-1.3422-0.31773-1.7611-0.95343c-0.41634-0.6397-0.62425-1.5135-0.62425-2.621 0-1.1155 0.20946-1.991 0.62839-2.6267 0.42151-0.6357 1.0071-0.95343 1.757-0.95343zm5.6208 0.02376c0.29739 0 0.57134 0.04991 0.82218 0.14986 0.25084 0.09995 0.48506 0.23023 0.70228 0.39016v1.8407h-0.19792c-0.0543-0.07197-0.12034-0.15571-0.19792-0.25166-0.07499-0.09596-0.16786-0.18968-0.27905-0.28164-0.10602-0.08796-0.22262-0.16004-0.34933-0.21601-0.12671-0.05997-0.27426-0.08992-0.44235-0.08992-0.37238 0-0.65922 0.18356-0.86093 0.55139-0.19912 0.36383-0.29869 0.85954-0.29869 1.4872 0 0.6477 0.10215 1.1395 0.30644 1.4754 0.20688 0.33584 0.49888 0.50384 0.87643 0.50384 0.17584 0 0.33372-0.02995 0.47336-0.08992 0.14223-0.06397 0.25986-0.13773 0.35295-0.22169 0.08792-0.07996 0.16531-0.16422 0.23254-0.25218 0.06723-0.08796 0.12966-0.17391 0.18655-0.25787h0.19792v1.8412c-0.2198 0.15992-0.45042 0.2858-0.69091 0.37775-0.2379 0.09596-0.50154 0.14418-0.79116 0.14418-0.38014 0-0.72786-0.06987-1.0433-0.2098-0.3129-0.13994-0.58582-0.35616-0.81856-0.64802-0.23015-0.29186-0.40866-0.6595-0.53537-1.1033-0.12671-0.44379-0.18965-0.96388-0.18965-1.5596 0-0.6277 0.06707-1.1694 0.20154-1.6252 0.13706-0.45579 0.32691-0.8334 0.56999-1.1333 0.23532-0.28387 0.50721-0.4918 0.81494-0.62373s0.62708-0.19792 0.95808-0.19792zm10.058 0c0.32583 0 0.63744 0.05211 0.93483 0.15606 0.29997 0.09995 0.5342 0.20807 0.70228 0.32401v1.7027h-0.1204c-0.20688-0.2199-0.44368-0.39736-0.71004-0.5333-0.26376-0.13994-0.53101-0.21032-0.80253-0.21032-0.22498 0-0.41535 0.04822-0.57051 0.14418-0.15257 0.09595-0.22892 0.23181-0.22892 0.40772 0 0.15992 0.03508 0.28191 0.1049 0.36587 0.06982 0.08396 0.23388 0.1677 0.49248 0.25166 0.14223 0.04398 0.29494 0.08831 0.45785 0.13229 0.1655 0.03998 0.33111 0.09157 0.49661 0.15555 0.3672 0.14793 0.63858 0.38192 0.81442 0.70176 0.17584 0.31585 0.26407 0.71175 0.26407 1.1875 0 0.69567-0.20172 1.2574-0.60513 1.6852-0.40341 0.4238-0.95544 0.63562-1.6562 0.63562-0.38789 0-0.73975-0.056-1.0552-0.16795-0.31549-0.11195-0.5688-0.23562-0.76016-0.37155v-1.7751h0.12764c0.06982 0.07596 0.1503 0.15971 0.24081 0.25166 0.09309 0.08796 0.22362 0.18389 0.39171 0.28784 0.14481 0.09196 0.30887 0.17181 0.49247 0.23978 0.1836 0.06397 0.38017 0.09612 0.58963 0.09612 0.27411 0 0.47738-0.04602 0.60926-0.13798 0.13188-0.09595 0.19741-0.2357 0.19741-0.41961 0-0.16392-0.0387-0.28202-0.11627-0.35398-0.07758-0.07596-0.22513-0.14804-0.44235-0.21601-0.10344-0.03598-0.24428-0.07371-0.42271-0.11369-0.17584-0.04398-0.33578-0.09609-0.48059-0.15606-0.39565-0.15992-0.68921-0.40778-0.88057-0.74362-0.19136-0.33984-0.28732-0.76179-0.28732-1.2656 0-0.6477 0.19811-1.185 0.59376-1.6128 0.39824-0.4318 0.94098-0.64802 1.6288-0.64802zm-7.6491 0.18604h1.404v3.3404c0 0.33984 0.0067 0.62373 0.01963 0.85163 0.0155 0.2239 0.04905 0.40966 0.10077 0.55759 0.04913 0.14793 0.12291 0.25604 0.22117 0.32401 0.10085 0.06797 0.24015 0.1018 0.41858 0.1018 0.11895 0 0.25103-0.03383 0.39584-0.1018 0.14481-0.06797 0.28462-0.16779 0.41909-0.29972v-4.7739h1.3963v6.735h-1.3963v-0.74362c-0.25859 0.30386-0.4954 0.53564-0.71003 0.69557-0.21463 0.15593-0.47053 0.23358-0.76791 0.23358-0.48099 0-0.85193-0.21351-1.1131-0.6413-0.2586-0.4278-0.38809-1.0599-0.38809-1.8955zm-8.0295 1.2955c-0.13447 0-0.25468 0.02774-0.3607 0.08372-0.10344 0.05597-0.20301 0.16798-0.29869 0.3359-0.08534 0.15593-0.15395 0.36995-0.20567 0.64182-0.04913 0.27187-0.07338 0.61346-0.07338 1.0253 0 0.36783 0.02167 0.68776 0.06563 0.95963 0.04396 0.26787 0.10897 0.48358 0.1943 0.6475 0.08275 0.15593 0.18077 0.27013 0.29456 0.3421 0.11637 0.07197 0.24844 0.108 0.39584 0.108 0.12671 0 0.24692-0.03215 0.3607-0.09612 0.11637-0.06797 0.21439-0.17997 0.29456-0.3359 0.09051-0.17192 0.15809-0.37764 0.20206-0.61753 0.04654-0.24389 0.06976-0.57989 0.06976-1.0077 0-0.39581-0.02323-0.72741-0.06976-0.99529-0.04655-0.26787-0.11155-0.4819-0.1943-0.64182-0.08275-0.16392-0.18232-0.27981-0.29869-0.34778-0.11637-0.06797-0.24174-0.1018-0.37621-0.1018z" fill="#f3f207" fill-opacity=".9803" stroke="#000" stroke-linejoin="round" stroke-width=".52917"/>
 </g>
 <g stroke="#0000d2" stroke-linecap="round" stroke-width=".14933">
  <path d="m33.351 118.55c-0.04493-14.486-0.05833-15.03-0.37961-15.385-0.31725-0.35051-0.49755-0.36796-3.8024-0.36796h-3.4694v-5.0699h19.231v5.0699h-3.4965c-3.2634 0-3.5198 0.0233-3.8462 0.34965-0.34423 0.34423-0.34965 0.58275-0.34965 15.385v15.035h-3.8404z"/>
  <path d="m50.874 114.86v-18.706h3.4965v6.6919c0 7.5155-0.0072 7.469 1.1636 7.469 0.54749 0 0.78446-0.17085 2.0443-1.4739 1.6932-1.7512 2.82-2.37 4.3096-2.3668 1.7773 4e-3 3.102 0.95317 4.018 2.8791 1.0527 2.2133 1.092 2.6786 1.1786 13.942l0.07899 10.271h-3.6771l-0.06797-9.0472c-0.05599-7.4521-0.11506-9.208-0.33503-9.9591-0.62546-2.1357-1.8228-3.0525-3.9866-3.0525-1.468 0-2.6444 0.4815-3.8959 1.5947l-0.83042 0.73862v19.726h-3.4965z"/>
  <path d="m75 120.37v-13.199h3.4965v1.7094c0 2.0804 0.19901 2.4865 1.2186 2.4865 0.61966 0 0.74661-0.0908 1.5656-1.1201 0.49022-0.61607 1.1686-1.3636 1.5075-1.6612 0.78657-0.69062 2.2107-1.4145 2.7828-1.4145h0.44288v6.1467l-1.11-0.11887c-0.62427-0.0669-1.6762-0.0314-2.4038 0.081-1.4244 0.22002-3.5808 1.1202-3.839 1.6026-0.09693 0.18112-0.1646 4.0856-0.1646 9.4974v9.1898h-3.4965z"/>
  <path d="m97.378 134.21c-1.3868-0.40107-2.1607-0.86639-3.24-1.948-2.4345-2.4398-3.576-6.24-3.5775-11.909-2e-3 -8.158 2.6857-13.094 7.5868-13.934 1.4739-0.25247 3.424 0.01 4.6933 0.63088 1.6962 0.83014 3.2729 2.7313 4.2133 5.0802 1.5332 3.8297 1.7441 11.018 0.44751 15.251-0.94168 3.0742-2.6916 5.4022-4.804 6.3907-1.0083 0.47184-1.4064 0.55657-2.8523 0.60716-1.036 0.0362-1.9821-0.0285-2.4671-0.16873zm4.4155-4.4234c0.40212-0.28262 0.94872-0.82649 1.2146-1.2086 1.5955-2.2925 2.1426-8.3361 1.1895-13.14-0.66901-3.3718-2.2501-5.0927-4.7015-5.1172-2.4354-0.0244-3.9423 1.4962-4.7755 4.8188-0.34209 1.3643-0.38946 2.004-0.38699 5.2259 0.0021 2.7826 0.07311 3.9815 0.29321 4.9525 0.5643 2.4896 1.5719 4.0875 3.0133 4.7787 0.55452 0.26589 0.98116 0.32167 2.0607 0.26942 1.1643-0.0563 1.4673-0.14029 2.0925-0.57974z"/>
  <path d="m119.05 134.21c-1.5786-0.43884-2.6732-1.6778-3.3134-3.7505-0.6399-2.0717-0.69423-3.1093-0.69557-13.281l-1e-3 -10.009h3.4739l0.0614 9.0472c0.0584 8.6128 0.0789 9.0989 0.42504 10.124 0.73969 2.1899 1.7227 2.9261 3.9068 2.9258 1.5409-1.6e-4 2.7888-0.50481 3.9895-1.6133l0.73076-0.67463v-19.809h3.4965v26.399h-3.4965v-1.3013c0-1.1465-0.0462-1.3336-0.38855-1.5734-0.7755-0.54317-1.1604-0.36164-2.9396 1.3864-0.92847 0.9122-1.9559 1.7701-2.2831 1.9064-0.91294 0.38034-2.085 0.46886-2.9658 0.22399z"/>
  <path d="m142.57 144.15c-0.67308-0.12382-1.5581-0.31643-1.9668-0.42803l-0.74301-0.20289v-4.6678l1.0052 0.41213c3.0879 1.266 5.9992 1.2116 8.0242-0.14993 1.508-1.0139 2.2048-2.6711 2.4335-5.7876 0.17382-2.368-0.095-3.0801-1.1629-3.0801-0.39309 0-0.75876 0.24239-1.5535 1.0298-1.7251 1.7091-3.1501 2.187-5.0615 1.6973-3.0964-0.79327-4.8684-3.9012-5.4279-9.52-0.50906-5.1126 0.0363-9.5333 1.5686-12.715 0.89186-1.8518 1.9873-3.0573 3.4181-3.7617 1.0262-0.50517 1.2328-0.54577 2.3924-0.47004 1.3664 0.0892 2.3298 0.47901 3.4916 1.4127 1.0067 0.80898 2.0627 0.66258 2.3093-0.32016 0.10564-0.42091 0.14454-0.42989 1.8623-0.42989h1.7544l-0.0647 14.117c-0.0626 13.653-0.077 14.171-0.43725 15.756-0.67058 2.9492-2.0506 5.2126-3.8052 6.2408-1.7516 1.0265-5.1681 1.3953-8.037 0.8675zm6.1346-16.023c0.61661-0.2307 1.3118-0.68041 1.8422-1.1916l0.85188-0.8211v-6.8988c0-5.8669-0.0394-6.9552-0.26375-7.2754-0.4261-0.60835-2.0776-1.1358-3.6028-1.1507-2.7774-0.0271-4.5194 1.5379-5.4247 4.8736-0.31386 1.1564-0.37628 1.8714-0.38022 4.3556-6e-3 4.0837 0.4504 5.8791 1.8327 7.2016 1.3315 1.274 3.2565 1.6133 5.1446 0.90684z"/>
  <path d="m162.94 114.86v-18.706h3.4965v6.6919c0 7.5205-8e-3 7.469 1.1685 7.469 0.55337 0 0.78846-0.16872 2.0707-1.486 1.7116-1.7585 2.7975-2.3558 4.2876-2.3584 2.3794-4e-3 4.0186 1.7549 4.8313 5.1845 0.23933 1.0101 0.29454 2.797 0.35695 11.553l0.0738 10.358h-3.6756l-0.0638-9.1346c-0.0689-9.8678-0.086-10.056-1.0499-11.51-0.94963-1.4331-3.5704-1.8805-5.4962-0.93831-0.53476 0.26164-1.3168 0.80579-1.7378 1.2092l-0.76556 0.73354v19.64h-3.4965z"/>
  <path d="m84.615 181.38v-17.92h15.21v4.8762l-5.3262 0.0532c-4.8353 0.0483-5.3549 0.0819-5.6381 0.365-0.27772 0.27764-0.31769 0.74831-0.36452 4.292-0.05066 3.8338-0.03894 3.9976 0.31863 4.4521l0.37123 0.47194h9.7648v4.8795l-4.8891 0.0515c-4.4184 0.0465-4.9192 0.0815-5.201 0.36355-0.28857 0.2887-0.31558 0.90042-0.36081 8.1731l-0.04889 7.861h-3.8358z"/>
  <path d="m112.27 199.99c-3.5233-0.69336-6.0141-4.0457-6.9402-9.3409-0.32409-1.853-0.37461-6.6815-0.0905-8.6538 0.50249-3.4889 1.5809-5.9555 3.4084-7.7963 1.7043-1.7166 2.615-2.0708 5.3398-2.0769 1.9073-4e-3 2.0716 0.0245 3.2019 0.55987 2.3314 1.1043 4.1369 3.7054 5 7.2033 1.2298 4.9843 0.73467 11.708-1.1424 15.513-1.7648 3.5774-5.0904 5.3173-8.7769 4.5918zm3.0622-4.0964c0.63001-0.18709 1.0867-0.48257 1.5903-1.029 0.84629-0.91812 1.0977-1.3833 1.6168-2.9918 0.34398-1.0657 0.40524-1.698 0.47429-4.8951 0.0912-4.2202-0.16126-6.2846-0.98329-8.042-0.99642-2.1302-2.0839-2.8846-4.1581-2.8846-2.1982 0-3.5928 1.2039-4.3944 3.7934-1.0458 3.3783-0.98208 9.9264 0.12498 12.84 1.0782 2.838 3.1224 3.9829 5.7293 3.2087z"/>
  <path d="m136.36 199.88c-3.6915-0.61725-6.2395-3.3107-7.4804-7.9076-0.42412-1.5711-0.45259-1.9281-0.46105-5.7829-8e-3 -3.7112 0.0294-4.2605 0.38795-5.6818 0.59974-2.3771 1.7802-4.662 3.0747-5.9515 2.768-2.7573 6.8593-3.2318 10.467-1.2139l0.83042 0.46454v4.7017l-0.9258-0.69899c-1.5242-1.1508-2.4501-1.492-4.0567-1.495-2.2926-4e-3 -3.6889 0.87156-4.881 3.0618-1.1637 2.1381-1.6571 6.7642-1.081 10.135 0.52924 3.0964 2.0763 5.3506 4.1433 6.0371 1.934 0.64239 4.5696 0.0818 6.1535-1.3089l0.64762-0.56862v4.7434l-1.2675 0.60863c-0.69712 0.33474-1.6215 0.68979-2.0542 0.789-0.7708 0.17674-2.6305 0.21304-3.4965 0.0682z"/>
  <path d="m152.68 199.57c-1.4361-0.7267-2.3702-2.2472-2.9556-4.8108-0.25891-1.1339-0.30978-2.7002-0.37618-11.582l-0.0768-10.271h3.7002l3e-3 8.6101c3e-3 9.4346 0.0799 10.339 1.0013 11.826 0.30429 0.49124 0.77145 0.93226 1.2684 1.1974 0.68071 0.36319 0.97518 0.41174 2.1853 0.36028 1.6397-0.0697 2.7065-0.52039 3.8837-1.6408l0.7492-0.71304v-19.64h3.4965v26.399h-3.4965v-1.2044c0-1.4616-0.32991-2.0062-1.2004-1.9814-0.4617 0.0131-0.82215 0.28336-2.0828 1.5615-1.7653 1.7898-2.4853 2.1947-4.0595 2.2831-0.95683 0.0537-1.2791-8e-3 -2.04-0.39347z"/>
  <path d="m175.96 199.67c-0.67615-0.16636-1.7579-0.54979-2.4038-0.85207l-1.1745-0.5496v-2.1945c0-1.207 0.0448-2.1945 0.0996-2.1945s0.45307 0.24318 0.88506 0.5404c3.3048 2.2738 7.8681 2.5257 9.5497 0.52721 0.95098-1.1302 1.0493-2.9886 0.22412-4.2356-0.52423-0.79217-1.6431-1.3462-4.0278-1.9945-2.3361-0.6351-3.3974-1.1269-4.3737-2.0268-1.476-1.3605-2.1822-3.3355-2.1822-6.1024 0-1.0244 0.10881-2.0503 0.27891-2.6294 1.1992-4.0828 4.693-6.3375 8.9896-5.8016 0.8375 0.10447 2.1759 0.4416 3.0594 0.77061l1.5706 0.5849 0.0491 2.1416c0.027 1.1779 0.0169 2.1416-0.0225 2.1416s-0.5335-0.27865-1.098-0.61922c-1.5911-0.95986-3.0956-1.3504-4.9174-1.2766-2.6221 0.10629-4.0446 1.1342-4.2024 3.0367-0.11017 1.3285 0.0764 2.0976 0.67391 2.7782 0.66005 0.75175 1.4805 1.1311 4.1611 1.9242 2.5707 0.76051 3.5606 1.2388 4.4292 2.14 1.693 1.7564 2.2913 5.3073 1.4227 8.443-1.0442 3.7696-3.924 5.7985-8.181 5.7638-0.86922-7e-3 -2.1336-0.14898-2.8098-0.31534z"/>
  <path d="m187.06 125.7v-18.531h3.4965v1.1364c0 1.3259 0.34514 1.8357 1.2428 1.8357 0.44957 0 0.78954-0.24987 1.9668-1.4456 1.6155-1.6408 2.3898-2.0837 3.8331-2.1925 1.9472-0.14671 3.4016 0.87653 4.5498 3.201 1.1053 2.2376 1.654 4.8888 1.8091 8.7413 0.24484 6.0812-1.1508 11.396-3.6628 13.95-1.1435 1.1623-1.9999 1.5742-3.4584 1.6631-1.3092 0.0799-2.3521-0.27755-3.7875-1.298-0.79588-0.56585-1.4868-0.73217-1.8987-0.4571-0.53889 0.35982-0.59435 0.95805-0.59435 6.4106v5.5185h-3.4965zm9.3644 3.9176c1.5528-0.64881 2.4305-1.7114 3.1243-3.7827 1.1328-3.3818 0.97092-9.789-0.31129-12.319-0.52628-1.0386-1.58-2.0309-2.4677-2.3239-1.6142-0.53273-4.1747 0.12661-5.5576 1.4311l-0.65559 0.61843v7.6137c0 4.1875 0.0513 7.7472 0.11392 7.9105 0.0626 0.16328 0.51501 0.48363 1.0052 0.7119 0.73191 0.3408 1.1767 0.41533 2.4871 0.41674 1.0671 1e-3 1.8164-0.0905 2.2616-0.2765z"/>
  <path d="m214.64 134.2c-1.1814-0.3271-2.0415-1.0896-2.7022-2.3958-1.1822-2.3372-1.1609-2.0951-1.2266-13.927l-0.0595-10.708h3.4913l0.068 9.0472c0.0578 7.6827 0.11057 9.1884 0.35004 9.9836 0.66089 2.1946 1.7904 3.0659 3.9752 3.0665 1.0935 3.5e-4 1.4786-0.083 2.3199-0.50166 0.5548-0.27611 1.3218-0.79109 1.7046-1.1444l0.69581-0.64237v-19.809h3.4966v26.399h-3.4965v-1.3013c0-1.1465-0.0462-1.3336-0.38855-1.5734-0.7755-0.54317-1.1604-0.36164-2.9396 1.3864-0.92847 0.9122-1.9559 1.7701-2.2831 1.9064-0.9271 0.38624-2.0852 0.4687-3.0052 0.21399z"/>
  <path d="m238.64 133.75c-1.3034-0.44762-2.3077-1.5561-2.8312-3.1251-0.37609-1.1272-0.39227-1.4636-0.48351-10.054l-0.0944-8.888-0.41272-0.33401c-0.26614-0.21538-0.68527-0.33401-1.1801-0.33401h-0.76735v-3.8462h0.84703c1.4699 0 1.5035-0.0958 1.5693-4.476l0.0561-3.7408h3.4716v3.8191c0 3.4778 0.0286 3.8449 0.31971 4.1084 0.26583 0.24057 0.7372 0.28933 2.7972 0.28933h2.4775v3.8462h-2.4476c-2.2336 0-2.4788 0.0313-2.8056 0.35806-0.3517 0.35171-0.35714 0.49536-0.30594 8.0857 0.0514 7.6283 0.0573 7.7387 0.45215 8.5953 0.5128 1.1124 0.83627 1.4673 1.6979 1.8629 0.76217 0.34999 2.2476 0.42941 2.9606 0.1583l0.44844-0.1705v3.7892l-0.99069 0.19896c-1.517 0.30466-3.6625 0.24061-4.7785-0.14267z"/>
 </g>
 <metadata>
  <rdf:RDF>
   <cc:Work rdf:about="">
    <dc:title>Throughput Focus Logo</dc:title>
   </cc:Work>
  </rdf:RDF>
 </metadata>
</svg>
