<?xml version="1.0" encoding="UTF-8" standalone="no"?>
<!-- Created with Inkscape (http://www.inkscape.org/) -->

<svg
   width="154.58281mm"
   height="29.424561mm"
   viewBox="0 0 154.58281 29.424561"
   version="1.1"
   id="svg8"
   inkscape:version="1.2-beta (1b65182ce9, 2022-04-05)"
   sodipodi:docname="2022-01-22 throughputfocus logo black.svg"
   xmlns:inkscape="http://www.inkscape.org/namespaces/inkscape"
   xmlns:sodipodi="http://sodipodi.sourceforge.net/DTD/sodipodi-0.dtd"
   xmlns="http://www.w3.org/2000/svg"
   xmlns:svg="http://www.w3.org/2000/svg"
   xmlns:rdf="http://www.w3.org/1999/02/22-rdf-syntax-ns#"
   xmlns:cc="http://creativecommons.org/ns#"
   xmlns:dc="http://purl.org/dc/elements/1.1/">
  <defs
     id="defs2">
    <filter
       style="color-interpolation-filters:sRGB"
       inkscape:label="Drop Shadow"
       id="filter6000"
       x="-0.0082712947"
       y="-0.048614555"
       width="1.0212633"
       height="1.1173484">
      <feFlood
         flood-opacity="0.498039"
         flood-color="rgb(0,0,0)"
         result="flood"
         id="feFlood5990" />
      <feComposite
         in="flood"
         in2="SourceGraphic"
         operator="in"
         result="composite1"
         id="feComposite5992" />
      <feGaussianBlur
         in="composite1"
         stdDeviation="1.5"
         result="blur"
         id="feGaussianBlur5994" />
      <feOffset
         dx="2"
         dy="2"
         result="offset"
         id="feOffset5996" />
      <feComposite
         in="SourceGraphic"
         in2="offset"
         operator="over"
         result="composite2"
         id="feComposite5998" />
    </filter>
  </defs>
  <sodipodi:namedview
     id="base"
     pagecolor="#ffffff"
     bordercolor="#666666"
     borderopacity="1.0"
     inkscape:pageopacity="0.0"
     inkscape:pageshadow="2"
     inkscape:zoom="3.959798"
     inkscape:cx="322.74374"
     inkscape:cy="59.599"
     inkscape:document-units="mm"
     inkscape:current-layer="layer1"
     showgrid="false"
     fit-margin-top="0"
     fit-margin-left="0"
     fit-margin-right="0"
     fit-margin-bottom="0"
     inkscape:window-width="2048"
     inkscape:window-height="1089"
     inkscape:window-x="1912"
     inkscape:window-y="-8"
     inkscape:window-maximized="1"
     inkscape:pagecheckerboard="0"
     inkscape:deskcolor="#d1d1d1" />
  <metadata
     id="metadata5">
    <rdf:RDF>
      <cc:Work
         rdf:about="">
        <dc:format>image/svg+xml</dc:format>
        <dc:type
           rdf:resource="http://purl.org/dc/dcmitype/StillImage" />
      </cc:Work>
    </rdf:RDF>
  </metadata>
  <g
     inkscape:label="Layer 1"
     inkscape:groupmode="layer"
     id="layer1"
     transform="translate(-10.010758,-36.651509)">
    <path
       style="fill:#f3ed0d;fill-opacity:1;stroke:#000000;stroke-width:0.85417324;stroke-opacity:1;stroke-dasharray:none"
       d="m 510.2168,147.79297 -0.0176,14.48437 -113.98438,-1.26367 -19.31836,19.79102 -18.29687,-18.27539 -272.076172,-1.00977 v 68.5 l 272.279292,-0.50391 19.35157,-17.70703 18.37304,17.70703 112.91407,-0.50585 0.17382,11.45898 63.78321,-40.52539 z m -384.4375,22.78125 h 7.50195 v 14.89453 c 1.33357,-1.33706 2.61155,-2.36112 3.83398,-3.07422 1.23633,-0.7131 2.60521,-1.07031 4.10547,-1.07031 2.52822,0 4.49911,0.94427 5.91602,2.83398 1.4308,1.88972 2.14648,4.71496 2.14648,8.47657 v 19.54882 h -7.54297 v -14.89453 c 0,-1.21227 -0.0473,-2.41688 -0.14453,-3.61133 -0.0972,-1.21227 -0.26384,-2.10334 -0.5,-2.67382 -0.27782,-0.65962 -0.6887,-1.1403 -1.23047,-1.44336 -0.52787,-0.30307 -1.27001,-0.45508 -2.22851,-0.45508 -0.68068,0 -1.37553,0.14249 -2.08399,0.42773 -0.69456,0.28524 -1.45189,0.74128 -2.27148,1.36524 v 21.28515 h -7.50195 z m 141.27539,0 h 7.5 v 14.89453 c 1.33356,-1.33706 2.61155,-2.36112 3.83398,-3.07422 1.23633,-0.7131 2.60521,-1.07031 4.10547,-1.07031 2.52822,0 4.50106,0.94427 5.91797,2.83398 1.4308,1.88972 2.14648,4.71496 2.14648,8.47657 v 19.54882 h -7.54297 v -14.89453 c 0,-1.21227 -0.0492,-2.41688 -0.14648,-3.61133 -0.0972,-1.21227 -0.26385,-2.10334 -0.5,-2.67382 -0.27783,-0.65962 -0.68675,-1.1403 -1.22852,-1.44336 -0.52786,-0.30307 -1.27196,-0.45508 -2.23046,-0.45508 -0.68068,0 -1.37553,0.14249 -2.08399,0.42773 -0.69456,0.28524 -1.4519,0.74128 -2.27148,1.36524 v 21.28515 h -7.5 z m -173.050784,1.79101 h 27.378904 v 7.70118 h -9.68945 v 32.11718 h -8 v -32.11718 h -9.689454 z m 298.156254,0 h 22.23242 v 7.70118 h -14.27344 v 7.4082 h 13.23047 v 7.70117 h -13.23047 v 17.00781 h -7.95898 z m -33.98633,1.20313 h 7.50195 v 8.58398 h 7.02149 v 6.52539 h -7.02149 v 10.64258 c 0,1.05182 0.008,1.97145 0.0215,2.75586 0.0139,0.78441 0.12366,1.48737 0.33203,2.11133 0.19448,0.62396 0.53529,1.12367 1.02148,1.49805 0.50009,0.35655 1.22336,0.53515 2.16797,0.53515 0.38896,0 0.89442,-0.10833 1.51953,-0.32226 0.639,-0.21393 1.08394,-0.40962 1.33399,-0.58789 h 0.625 v 6.60547 c -0.8057,0.26741 -1.65957,0.47261 -2.5625,0.61523 -0.90294,0.16045 -2.00672,0.24023 -3.3125,0.24023 -2.91718,0 -5.09264,-0.7581 -6.52344,-2.27343 -1.41692,-1.51534 -2.125,-4.10879 -2.125,-7.78125 v -14.03907 h -3.08399 v -6.52539 h 3.08399 z m -169.61328,7.64844 c 4.08404,0 7.23832,1.42689 9.46093,4.27929 2.23651,2.8524 3.35547,6.74733 3.35547,11.68555 0,4.93822 -1.12656,8.83315 -3.37695,11.68555 -2.2365,2.83457 -5.38319,4.25195 -9.43945,4.25195 -4.05627,0 -7.2086,-1.41738 -9.45899,-4.25195 -2.2365,-2.8524 -3.35547,-6.74733 -3.35547,-11.68555 0,-4.97387 1.12656,-8.87832 3.37696,-11.71289 2.26428,-2.83457 5.40902,-4.25195 9.4375,-4.25195 z m 242.04297,0 c 4.08404,0 7.23832,1.42689 9.46093,4.27929 2.2365,2.8524 3.35352,6.74733 3.35352,11.68555 0,4.93822 -1.12461,8.83315 -3.375,11.68555 -2.2365,2.83457 -5.38319,4.25195 -9.43945,4.25195 -4.05627,0 -7.21055,-1.41738 -9.46094,-4.25195 -2.2365,-2.8524 -3.35352,-6.74733 -3.35352,-11.68555 0,-4.97387 1.12461,-8.87832 3.375,-11.71289 2.26429,-2.83457 5.41098,-4.25195 9.43946,-4.25195 z m -184.44922,0.10742 c 1.26411,0 2.41149,0.19568 3.43945,0.58789 1.04185,0.37438 1.98466,0.90068 2.83203,1.57812 l 0.27149,-1.33789 h 7.27148 v 26.58204 c 0,2.81674 -0.31239,5.18791 -0.9375,7.11328 -0.62511,1.92537 -1.4998,3.43205 -2.625,4.51953 -1.1252,1.1053 -2.48648,1.89756 -4.08398,2.3789 -1.58361,0.49917 -3.37466,0.74805 -5.375,0.74805 -1.62529,0 -3.23085,-0.12346 -4.81446,-0.37305 -1.56972,-0.24958 -2.931,-0.5536 -4.08398,-0.91015 v -7.51367 h 0.91797 c 0.91682,0.46351 2.03384,0.88148 3.35351,1.25585 1.31968,0.39221 2.50112,0.58985 3.54297,0.58985 1.38913,0 2.51374,-0.16909 3.375,-0.50781 0.87515,-0.3209 1.54159,-0.78449 2,-1.39063 0.43063,-0.57048 0.74302,-1.30198 0.9375,-2.19336 0.19448,-0.89137 0.29297,-1.96106 0.29297,-3.20898 v -0.5625 c -0.90294,0.94485 -1.90259,1.69344 -3,2.24609 -1.09741,0.55265 -2.32051,0.83008 -3.66797,0.83008 -3.27835,0 -5.8059,-1.26537 -7.58398,-3.79688 -1.77809,-2.5315 -2.66797,-6.38276 -2.66797,-11.55273 0,-2.47802 0.27074,-4.61739 0.8125,-6.41797 0.54176,-1.80058 1.30668,-3.36997 2.29297,-4.70703 0.91682,-1.24792 2.04143,-2.21879 3.375,-2.91406 1.34745,-0.69527 2.72197,-1.04297 4.125,-1.04297 z m 66.51172,0 c 2.91717,0 5.18157,1.37175 6.79296,4.11719 1.62529,2.74543 2.4375,6.5169 2.4375,11.3125 0,2.47802 -0.2972,4.73329 -0.89453,6.76562 -0.58343,2.03234 -1.35595,3.70811 -2.31445,5.02735 -1.00017,1.39054 -2.13238,2.44315 -3.39648,3.15624 -1.26411,0.7131 -2.61781,1.06836 -4.0625,1.06836 -1.33357,0 -2.46577,-0.18617 -3.39649,-0.56054 -0.93072,-0.35655 -1.88308,-0.86578 -2.85547,-1.52539 v 12.51562 h -7.5 v -41.04883 h 7.5 v 3.12891 c 1.15298,-1.17661 2.32683,-2.1304 3.52149,-2.86133 1.20854,-0.73093 2.59825,-1.0957 4.16797,-1.0957 z m 148.13086,0 c 1.5975,0 3.06855,0.22228 4.41601,0.66797 1.34746,0.44568 2.60462,1.02518 3.77149,1.73828 v 8.20898 h -1.0625 c -0.29172,-0.32089 -0.64577,-0.69518 -1.0625,-1.12304 -0.40285,-0.42786 -0.90268,-0.84583 -1.5,-1.25586 -0.56955,-0.39221 -1.19433,-0.71331 -1.875,-0.96289 -0.68068,-0.26742 -1.47207,-0.40039 -2.375,-0.40039 -2.00035,0 -3.54344,0.81885 -4.62696,2.45898 -1.06963,1.6223 -1.60351,3.8339 -1.60351,6.63281 0,2.88806 0.54907,5.08062 1.64648,6.57813 1.11131,1.49751 2.68085,2.24609 4.70899,2.24609 0.9446,0 1.79088,-0.13298 2.54101,-0.40039 0.76402,-0.28524 1.3964,-0.61586 1.89649,-0.99023 0.4723,-0.35655 0.88882,-0.73085 1.25,-1.12305 0.36117,-0.39221 0.69439,-0.77601 1,-1.15039 h 1.0625 v 8.21094 c -1.18077,0.7131 -2.4171,1.27356 -3.70899,1.68359 -1.278,0.42786 -2.69417,0.64258 -4.25,0.64258 -2.04202,0 -3.91073,-0.31159 -5.60547,-0.93555 -1.68085,-0.62396 -3.14626,-1.58726 -4.39648,-2.88867 -1.23633,-1.30141 -2.19433,-2.94107 -2.875,-4.91992 -0.68068,-1.97885 -1.02149,-4.29683 -1.02149,-6.95313 0,-2.79891 0.36164,-5.21571 1.08399,-7.24804 0.73624,-2.03234 1.75671,-3.71568 3.0625,-5.05274 1.26411,-1.26575 2.72388,-2.19294 4.37695,-2.78125 1.65307,-0.58831 3.3684,-0.88281 5.14649,-0.88281 z m 54.02929,0 c 1.75031,0 3.42399,0.2318 5.02149,0.69531 1.61139,0.44569 2.86855,0.92636 3.77148,1.44336 v 7.5957 h -0.64453 c -1.11131,-0.98051 -2.38365,-1.77472 -3.81445,-2.38086 -1.41692,-0.62396 -2.85392,-0.93554 -4.3125,-0.93554 -1.20855,0 -2.22903,0.21472 -3.0625,0.64258 -0.81959,0.42786 -1.23047,1.03395 -1.23047,1.81835 0,0.7131 0.18743,1.25649 0.5625,1.63086 0.37506,0.37438 1.25735,0.74867 2.64648,1.12305 0.76402,0.1961 1.58383,0.39179 2.45899,0.58789 0.88904,0.17828 1.77892,0.41007 2.66796,0.69531 1.97257,0.65962 3.4304,1.70271 4.375,3.12891 0.94461,1.40837 1.41602,3.17345 1.41602,5.29492 0,3.10199 -1.08296,5.60613 -3.25,7.51367 -2.16704,1.88972 -5.13194,2.83399 -8.89648,2.83399 -2.0837,0 -3.97323,-0.24888 -5.66797,-0.74805 -1.69474,-0.49917 -3.05603,-1.05207 -4.08399,-1.6582 v -7.91602 h 0.6875 c 0.37507,0.33873 0.80482,0.71497 1.29102,1.125 0.50009,0.39221 1.20253,0.81969 2.10547,1.28321 0.77791,0.41003 1.6602,0.76529 2.64648,1.06836 0.98628,0.28524 2.04082,0.42773 3.16602,0.42773 1.47248,0 2.56303,-0.20325 3.27148,-0.61328 0.70846,-0.42786 1.0625,-1.05298 1.0625,-1.87305 0,-0.73093 -0.20826,-1.25723 -0.625,-1.57812 -0.41674,-0.33873 -1.20813,-0.65983 -2.375,-0.96289 -0.55565,-0.16045 -1.31298,-0.32954 -2.27148,-0.50782 -0.94461,-0.1961 -1.80607,-0.4279 -2.58399,-0.69531 -2.12537,-0.7131 -3.70056,-1.81694 -4.72851,-3.31445 -1.02796,-1.51534 -1.54297,-3.39632 -1.54297,-5.64258 0,-2.88805 1.06213,-5.28582 3.1875,-7.19336 2.13926,-1.92537 5.05686,-2.88867 8.75195,-2.88867 z m -343.43359,0.72266 c 0.26393,-10e-6 0.56114,0.008 0.89453,0.0254 0.33339,0.0178 0.62496,0.0444 0.875,0.0801 v 9.17383 h -0.66602 c -0.3195,-0.14262 -0.83256,-0.25095 -1.54101,-0.32226 -0.70846,-0.0713 -1.29918,-0.10547 -1.77149,-0.10547 -1.06963,0 -2.01439,0.0874 -2.83398,0.26562 -0.81959,0.17828 -1.70188,0.4823 -2.64649,0.91016 v 20.10937 h -7.50195 v -30.03125 h 7.50195 v 4.41211 c 1.65307,-1.8184 3.09007,-3.02106 4.3125,-3.60937 1.22244,-0.60614 2.349,-0.90821 3.37696,-0.9082 z m 35.21289,0.10546 h 7.54297 v 14.89649 c 0,1.51534 0.036,2.78071 0.10547,3.79687 0.0833,0.99834 0.26319,1.82671 0.54101,2.48633 0.26394,0.65962 0.65963,1.14029 1.1875,1.44336 0.54176,0.30307 1.2915,0.45508 2.25,0.45508 0.639,0 1.34904,-0.15201 2.12696,-0.45508 0.77791,-0.30307 1.52765,-0.74763 2.25,-1.33594 v -21.28711 h 7.5 v 30.03125 h -7.5 v -3.3164 c -1.38914,1.35489 -2.66148,2.38846 -3.81446,3.10156 -1.15298,0.69527 -2.5275,1.04297 -4.125,1.04297 -2.58378,0 -4.57744,-0.95379 -5.98047,-2.86133 -1.38913,-1.90754 -2.08398,-4.72327 -2.08398,-8.44922 z m 120.52148,0 h 7.54297 v 14.89649 c 0,1.51534 0.0341,2.78071 0.10352,3.79687 0.0833,0.99834 0.26514,1.82671 0.54297,2.48633 0.26393,0.65962 0.65963,1.14029 1.1875,1.44336 0.54176,0.30307 1.2915,0.45508 2.25,0.45508 0.639,0 1.34708,-0.15201 2.125,-0.45508 0.77791,-0.30307 1.5296,-0.74763 2.25195,-1.33594 v -21.28711 h 7.5 v 30.03125 h -7.5 v -3.3164 c -1.38913,1.35489 -2.66148,2.38846 -3.81445,3.10156 -1.15298,0.69527 -2.5275,1.04297 -4.125,1.04297 -2.58379,0 -4.57745,-0.95379 -5.98047,-2.86133 -1.38913,-1.90754 -2.08399,-4.72327 -2.08399,-8.44922 z m 146.60938,0 h 7.54297 v 14.89649 c 0,1.51534 0.0341,2.78071 0.10351,3.79687 0.0833,0.99834 0.26515,1.82671 0.54297,2.48633 0.26394,0.65962 0.65963,1.14029 1.1875,1.44336 0.54176,0.30307 1.2915,0.45508 2.25,0.45508 0.639,0 1.34709,-0.15201 2.125,-0.45508 0.77791,-0.30307 1.52765,-0.74763 2.25,-1.33594 v -21.28711 h 7.50195 v 30.03125 h -7.50195 v -3.3164 c -1.38913,1.35489 -2.65952,2.38846 -3.8125,3.10156 -1.15298,0.69527 -2.5275,1.04297 -4.125,1.04297 -2.58378,0 -4.57745,-0.95379 -5.98047,-2.86133 -1.38913,-1.90754 -2.08398,-4.72327 -2.08398,-8.44922 z m -285.17578,5.77735 c -0.72235,0 -1.36796,0.12346 -1.9375,0.37304 -0.55566,0.24959 -1.08954,0.7493 -1.60352,1.49805 -0.45841,0.69527 -0.82764,1.64906 -1.10547,2.86133 -0.26393,1.21227 -0.39453,2.73603 -0.39453,4.57227 0,1.64012 0.11736,3.06702 0.35352,4.27929 0.23615,1.19444 0.5826,2.15775 1.04101,2.88867 0.44452,0.69528 0.97277,1.20255 1.58399,1.52344 0.62511,0.3209 1.33319,0.48242 2.125,0.48242 0.68067,0 1.32823,-0.14249 1.93945,-0.42773 0.62511,-0.30307 1.1514,-0.80278 1.58203,-1.49805 0.4862,-0.76658 0.84783,-1.68425 1.08399,-2.7539 0.25004,-1.08748 0.375,-2.5866 0.375,-4.49414 0,-1.76493 -0.12496,-3.24306 -0.375,-4.4375 -0.25005,-1.19445 -0.5965,-2.14823 -1.04102,-2.86133 -0.44452,-0.73093 -0.98036,-1.24772 -1.60547,-1.55078 -0.62511,-0.30307 -1.29914,-0.45508 -2.02148,-0.45508 z m 242.04297,0 c -0.72235,0 -1.36796,0.12346 -1.9375,0.37304 -0.55566,0.24959 -1.09149,0.7493 -1.60547,1.49805 -0.45842,0.69527 -0.82569,1.64906 -1.10352,2.86133 -0.26393,1.21227 -0.39648,2.73603 -0.39648,4.57227 0,1.64012 0.11931,3.06702 0.35547,4.27929 0.23615,1.19444 0.5826,2.15775 1.04101,2.88867 0.44452,0.69528 0.97277,1.20255 1.58399,1.52344 0.6251,0.3209 1.33319,0.48242 2.125,0.48242 0.68067,0 1.32628,-0.14249 1.9375,-0.42773 0.6251,-0.30307 1.15335,-0.80278 1.58398,-1.49805 0.4862,-0.76658 0.84783,-1.68425 1.08398,-2.7539 0.25005,-1.08748 0.375,-2.5866 0.375,-4.49414 0,-1.76493 -0.12495,-3.24306 -0.375,-4.4375 -0.25004,-1.19445 -0.59844,-2.14823 -1.04296,-2.86133 -0.44453,-0.73093 -0.97841,-1.24772 -1.60352,-1.55078 -0.62511,-0.30307 -1.29914,-0.45508 -2.02148,-0.45508 z m -181.40625,0.42773 c -1.97257,0 -3.45317,0.73151 -4.43946,2.19336 -0.98628,1.44403 -1.47851,3.4675 -1.47851,6.07031 0,2.88806 0.41652,4.90201 1.25,6.04297 0.84737,1.14096 2.09693,1.71094 3.75,1.71094 0.75013,0 1.48663,-0.15201 2.20898,-0.45508 0.72235,-0.30307 1.38314,-0.70395 1.98047,-1.20312 v -13.61133 c -0.43063,-0.23176 -0.95888,-0.41037 -1.58398,-0.53516 -0.62511,-0.14262 -1.18742,-0.21289 -1.6875,-0.21289 z m 60.11523,0.24024 c -0.70846,0 -1.43932,0.14249 -2.18945,0.42773 -0.75013,0.26741 -1.46581,0.66074 -2.14649,1.17773 v 15.10743 c 0.50009,0.24958 1.03593,0.41111 1.60547,0.48242 0.56954,0.0713 1.13185,0.10547 1.6875,0.10547 1.98646,0 3.46511,-0.73907 4.4375,-2.21875 0.97239,-1.49751 1.45899,-3.74326 1.45899,-6.73828 0,-2.92371 -0.38811,-5.046 -1.16602,-6.36524 -0.77791,-1.31923 -2.00665,-1.97851 -3.6875,-1.97851 z"
       transform="scale(0.26458333)"
       id="rect3713"
       inkscape:connector-curvature="0" />
    <text
       xml:space="preserve"
       style="font-style:normal;font-variant:normal;font-weight:bold;font-stretch:normal;font-size:14.11111069px;line-height:1.25;font-family:sans-serif;-inkscape-font-specification:'sans-serif Bold';letter-spacing:0px;word-spacing:0px;fill:#000000;fill-opacity:1;stroke:none;stroke-width:0.26458332"
       x="25.256971"
       y="40.087166"
       id="text3718"><tspan
         sodipodi:role="line"
         id="tspan3716"
         x="25.256971"
         y="52.961159"
         style="font-style:normal;font-variant:normal;font-weight:bold;font-stretch:normal;font-size:14.11111069px;font-family:sans-serif;-inkscape-font-specification:'sans-serif Bold';stroke-width:0.26458332" /></text>
    <path
       style="fill:#000000;fill-opacity:1;stroke:#0000d2;stroke-width:0.215711;stroke-linecap:round;stroke-dasharray:none"
       d="M 66.41753,57.073619 V 40.911178 h -4.798225 -4.798224 v -3.282996 -3.282995 h 13.131983 13.131983 v 3.282995 3.282996 H 78.160553 73.23606 V 57.073619 73.23606 H 69.826795 66.41753 Z"
       id="path6120"
       transform="matrix(0.26458333,0,0,0.26458333,10.010758,36.651509)" />
    <path
       style="fill:#000000;fill-opacity:1;stroke:#0000d2;stroke-width:0.215711;stroke-linecap:round;stroke-dasharray:none"
       d="M 88.388348,52.90674 V 32.57742 h 3.282995 3.282996 v 7.702413 c 0,4.236327 0.07075,7.702413 0.157222,7.702413 0.08647,0 0.903059,-0.697694 1.814637,-1.55043 0.964165,-0.901929 2.331278,-1.865769 3.268482,-2.304339 1.46214,-0.684218 1.79319,-0.743366 3.58129,-0.639855 3.30142,0.191116 5.22644,1.771676 6.39549,5.251091 0.52941,1.575642 0.55537,2.108767 0.63648,13.069996 l 0.0846,11.427351 h -3.17086 -3.17085 l -0.009,-7.639279 c -0.013,-11.635213 -0.28691,-13.589878 -2.09345,-14.936487 -1.0463,-0.779916 -3.904516,-0.741455 -5.474186,0.07366 -2.204377,1.144715 -2.020305,0.05733 -2.020305,11.934644 V 73.23606 h -3.282996 -3.282995 z"
       id="path6122"
       transform="matrix(0.26458333,0,0,0.26458333,10.010758,36.651509)" />
    <path
       style="fill:#000000;fill-opacity:1;stroke:#0000d2;stroke-width:0.215711;stroke-linecap:round;stroke-dasharray:none"
       d="M 118.94546,58.715117 V 44.194174 h 3.15673 3.15673 v 2.525381 c 0,1.38896 0.0529,2.525382 0.11756,2.525382 0.0647,0 0.91869,-0.801135 1.89786,-1.780299 2.17616,-2.176162 4.26833,-3.269966 6.2552,-3.270265 l 1.32582,-1.99e-4 v 4.045421 4.045422 l -0.69448,-0.194215 c -0.38196,-0.106818 -1.77408,-0.189314 -3.09359,-0.183323 -1.86651,0.0085 -2.77753,0.144983 -4.10374,0.614913 l -1.70463,0.604021 V 63.181236 73.23606 h -3.15673 -3.15673 z"
       id="path6124"
       transform="matrix(0.26458333,0,0,0.26458333,10.010758,36.651509)" />
    <path
       style="fill:#000000;fill-opacity:1;stroke:#0000d2;stroke-width:0.215711;stroke-linecap:round;stroke-dasharray:none"
       d="m 147.23586,73.588833 c -4.08262,-1.097099 -7.10677,-4.658195 -8.24383,-9.70754 -0.63066,-2.800535 -0.57329,-8.345276 0.11277,-10.900527 1.87548,-6.985274 6.83336,-10.522357 13.43954,-9.588121 4.74293,0.670738 7.73812,3.356108 9.48505,8.503942 0.91271,2.689549 1.15154,8.222518 0.49716,11.51735 -1.09318,5.504142 -4.41869,9.337047 -8.93266,10.295566 -1.81302,0.384984 -4.67874,0.330595 -6.35803,-0.12067 z m 6.22646,-5.951393 c 2.06075,-1.363737 3.02641,-4.899123 2.78195,-10.185014 -0.24855,-5.374157 -1.59444,-7.934405 -4.44507,-8.455678 -1.83947,-0.336372 -3.29706,0.102117 -4.48997,1.350723 -1.64929,1.726296 -1.97582,3.139363 -1.96274,8.493915 0.01,3.974207 0.068,4.563589 0.57851,5.850552 0.31225,0.787125 0.80985,1.73895 1.10578,2.115167 1.34334,1.707774 4.49148,2.114212 6.43154,0.830335 z"
       id="path6126"
       transform="matrix(0.26458333,0,0,0.26458333,10.010758,36.651509)" />
    <path
       style="fill:#000000;fill-opacity:1;stroke:#0000d2;stroke-width:0.215711;stroke-linecap:round;stroke-dasharray:none"
       d="m 175.09277,73.766183 c -1.3504,-0.346569 -3.09288,-1.51874 -3.76303,-2.531397 -1.83192,-2.768228 -2.10881,-5.103527 -2.12068,-17.886105 l -0.009,-9.154507 h 3.26694 3.26695 l 0.0792,9.785853 c 0.0764,9.437652 0.0988,9.828295 0.63022,10.978673 0.7277,1.575241 1.77967,2.214259 3.64723,2.2155 1.58416,0.0011 2.99349,-0.420664 4.35557,-1.303327 l 0.9101,-0.589765 0.003,-10.543467 0.003,-10.543467 h 3.15673 3.15673 V 58.715117 73.23606 h -3.15673 -3.15673 v -2.020306 c 0,-1.111167 -0.0683,-2.020305 -0.15181,-2.020305 -0.0835,0 -0.946,0.735303 -1.91668,1.634005 -0.97069,0.898705 -2.35131,1.920555 -3.06806,2.27078 -1.41728,0.692531 -3.81709,1.003837 -5.13367,0.665949 z"
       id="path6128"
       transform="matrix(0.26458333,0,0,0.26458333,10.010758,36.651509)" />
    <path
       style="fill:#000000;fill-opacity:1;stroke:#0000d2;stroke-width:0.215711;stroke-linecap:round;stroke-dasharray:none"
       d="m 204.79224,84.093146 c -0.63394,-0.107351 -1.79877,-0.329327 -2.58852,-0.493277 l -1.4359,-0.298094 v -3.29211 c 0,-3.032879 0.0348,-3.278488 0.44194,-3.119131 6.75073,2.642276 11.81144,1.996665 13.32975,-1.700519 0.27712,-0.674799 0.48648,-2.046695 0.56678,-3.713967 l 0.12733,-2.643895 -1.36139,1.229189 c -2.44182,2.204703 -4.84466,2.969215 -7.61756,2.423679 -2.1001,-0.41317 -3.12532,-0.978363 -4.56333,-2.515711 -2.37,-2.533719 -3.31451,-5.926929 -3.30837,-11.885539 0.005,-4.444265 0.32062,-6.063656 1.75673,-9.001636 1.11341,-2.277814 3.26796,-4.358499 5.30081,-5.119087 2.71311,-1.015104 5.97396,-0.530054 8.43846,1.255217 1.06329,0.770246 1.15266,0.743952 1.33495,-0.392746 0.0751,-0.468533 0.3046,-0.510206 3.17151,-0.575983 l 3.09052,-0.07091 -0.004,14.718119 c -0.005,16.099612 -0.0521,16.730727 -1.4813,19.784967 -1.29439,2.766045 -3.55329,4.494729 -6.90637,5.285287 -1.68131,0.396404 -6.28236,0.466403 -8.29165,0.126145 z m 8.90845,-18.622842 1.33553,-0.754408 0.067,-7.241664 0.067,-7.241663 -0.9509,-0.411945 c -1.491,-0.645916 -4.47807,-0.57918 -5.81566,0.129932 -2.37958,1.261521 -3.44557,3.863187 -3.43592,8.385753 0.01,4.585953 0.81303,6.483436 3.22382,7.615564 1.50877,0.708531 3.7489,0.512713 5.50908,-0.481569 z"
       id="path6130"
       transform="matrix(0.26458333,0,0,0.26458333,10.010758,36.651509)" />
    <path
       style="fill:#000000;fill-opacity:1;stroke:#0000d2;stroke-width:0.215711;stroke-linecap:round;stroke-dasharray:none"
       d="M 229.8097,52.90674 V 32.57742 h 3.15673 3.15673 v 7.702413 c 0,4.236327 0.0668,7.702413 0.14854,7.702413 0.0817,0 0.9056,-0.685724 1.8309,-1.52383 2.27096,-2.056969 3.96683,-2.866324 6.24836,-2.982044 3.81724,-0.193613 6.18651,1.822275 7.37341,6.273641 0.2883,1.081266 0.39725,3.836521 0.49181,12.437503 l 0.12147,11.048544 h -3.30902 -3.30902 l -0.005,-8.649432 c -0.007,-11.738814 -0.28183,-13.280115 -2.53033,-14.179789 -1.83994,-0.736196 -4.0278,-0.379046 -6.11409,0.998076 l -0.94702,0.625107 V 62.633041 73.23606 h -3.15673 -3.15673 z"
       id="path6132"
       transform="matrix(0.26458333,0,0,0.26458333,10.010758,36.651509)" />
    <path
       style="fill:#000000;fill-opacity:1;stroke:#0000d2;stroke-width:0.215711;stroke-linecap:round;stroke-dasharray:none"
       d="M 260.11428,64.144687 V 44.194174 h 3.283 3.28299 v 1.917682 1.917682 l 1.7812,-1.64912 c 2.19782,-2.034843 3.647,-2.767265 5.74171,-2.901885 2.26463,-0.145542 3.64137,0.317573 5.21235,1.75336 2.21961,2.028593 3.42399,5.079567 3.93905,9.978446 0.85057,8.090217 -1.92353,15.31514 -6.79998,17.709965 -1.20817,0.59333 -1.70876,0.690613 -3.43461,0.667468 -2.09012,-0.02803 -3.61515,-0.536616 -5.61897,-1.873881 l -0.82075,-0.547735 v 6.464522 6.464521 h -3.28299 -3.283 z m 13.40139,3.006997 c 2.43621,-1.343541 3.42089,-4.399737 3.21634,-9.982691 -0.16781,-4.580155 -1.01678,-6.411448 -3.39297,-7.318924 -1.46506,-0.559511 -3.21955,-0.366965 -5.06611,0.55598 l -1.46639,0.732924 v 8.08122 8.08122 l 0.88388,0.31648 c 1.4335,0.51327 4.49322,0.268393 5.82525,-0.466209 z"
       id="path6134"
       transform="matrix(0.26458333,0,0,0.26458333,10.010758,36.651509)" />
    <path
       style="fill:#000000;fill-opacity:1;stroke:#0000d2;stroke-width:0.215711;stroke-linecap:round;stroke-dasharray:none"
       d="m 295.65082,73.732507 c -2.87451,-0.720494 -4.79715,-3.081016 -5.4688,-6.714325 -0.16221,-0.877447 -0.26824,-5.675324 -0.26824,-12.137518 v -10.68649 h 3.13385 3.13384 l 0.0999,9.659584 c 0.0914,8.836861 0.14175,9.764888 0.59109,10.895966 0.68431,1.722512 1.49974,2.261146 3.60305,2.379994 1.80913,0.102225 2.95144,-0.224049 4.52569,-1.292655 l 0.81902,-0.555955 0.002,-10.543467 0.002,-10.543467 h 3.15673 3.15673 V 58.715117 73.23606 h -3.15673 -3.15673 v -2.03913 -2.039128 l -1.95717,1.692285 c -1.07644,0.930754 -2.55345,1.970181 -3.28224,2.309835 -1.49209,0.695389 -3.50941,0.929522 -4.93345,0.572585 z"
       id="path6136"
       transform="matrix(0.26458333,0,0,0.26458333,10.010758,36.651509)" />
    <path
       style="fill:#000000;fill-opacity:1;stroke:#0000d2;stroke-width:0.215711;stroke-linecap:round;stroke-dasharray:none"
       d="m 326.61424,73.47739 c -2.3493,-0.464526 -4.0758,-1.867694 -4.94191,-4.016402 -0.54351,-1.348362 -0.56816,-1.756779 -0.64498,-10.682737 l -0.0799,-9.280776 h -1.62725 -1.62725 v -2.651651 -2.65165 h 1.64149 1.6415 v -4.293148 -4.293149 h 3.15673 3.15672 v 4.293149 4.293148 h 3.53554 3.53553 v 2.65165 2.651651 h -3.54866 -3.54865 l 0.0763,8.018086 c 0.068,7.152087 0.12532,8.107936 0.53047,8.850002 0.92632,1.696664 3.10779,2.278045 5.44869,1.452129 l 1.0419,-0.367604 v 2.749698 c 0,3.117174 0.21081,2.8436 -2.52538,3.277331 -1.88724,0.299157 -3.70881,0.299253 -5.22087,2.53e-4 z"
       id="path6138"
       transform="matrix(0.26458333,0,0,0.26458333,10.010758,36.651509)" />
    <path
       style="fill:#000000;fill-opacity:1;stroke:#0000d2;stroke-width:0.215711;stroke-linecap:round;stroke-dasharray:none"
       d="M 354.81608,53.790623 V 34.345187 h 10.6066 10.60661 v 3.282995 3.282996 h -7.19734 -7.19734 v 4.293148 4.293149 h 6.69226 6.69226 v 3.282995 3.282996 h -6.69226 -6.69226 v 8.586297 8.586297 h -3.40926 -3.40927 z"
       id="path6140"
       transform="matrix(0.26458333,0,0,0.26458333,10.010758,36.651509)" />
    <path
       style="fill:#000000;fill-opacity:1;stroke:#0000d2;stroke-width:0.215711;stroke-linecap:round;stroke-dasharray:none"
       d="m 389.54008,73.643656 c -2.81145,-0.683694 -5.7053,-3.015682 -7.06016,-5.689362 -1.4335,-2.828885 -1.77884,-4.624945 -1.77648,-9.239177 0.002,-4.772562 0.28231,-6.272116 1.71758,-9.203354 2.1926,-4.477901 7.16848,-6.943396 12.33343,-6.111078 4.89589,0.788958 8.08071,3.964393 9.61101,9.582688 0.75703,2.779329 0.75034,8.658824 -0.0131,11.493137 -1.6835,6.250313 -5.74525,9.562237 -11.64551,9.495686 -1.04726,-0.01181 -2.47232,-0.159655 -3.1668,-0.32854 z m 5.3033,-5.680777 c 1.28046,-0.587993 1.70315,-1.071823 2.56949,-2.941159 0.64383,-1.389213 0.70684,-1.804564 0.79753,-5.257427 0.14312,-5.449286 -0.64281,-8.613736 -2.47596,-9.969039 -1.3618,-1.006825 -3.95062,-1.166505 -5.48962,-0.338604 -1.67577,0.901477 -2.79331,3.813772 -3.01506,7.857218 -0.25608,4.669495 0.55558,8.160522 2.28763,9.839291 1.36492,1.322935 3.50111,1.647705 5.32599,0.80972 z"
       id="path6142"
       transform="matrix(0.26458333,0,0,0.26458333,10.010758,36.651509)" />
    <path
       style="fill:#000000;fill-opacity:1;stroke:#0000d2;stroke-width:0.215711;stroke-linecap:round;stroke-dasharray:none"
       d="m 420.71606,73.725751 c -7.30148,-1.074997 -11.19476,-6.959032 -10.76755,-16.273325 0.28301,-6.17038 2.61716,-10.514165 6.79831,-12.651449 3.61921,-1.850043 8.49311,-1.832519 12.46144,0.0448 l 1.36926,0.647763 v 3.643463 c 0,2.003905 -0.0567,3.643463 -0.12598,3.643463 -0.0693,0 -0.60909,-0.471288 -1.19955,-1.047307 -1.65681,-1.616267 -3.72105,-2.488986 -5.8718,-2.482481 -2.20868,0.0067 -3.49082,0.555589 -4.75932,2.037552 -1.43649,1.678217 -2.052,3.953868 -2.04295,7.553152 0.0117,4.650197 1.14203,7.221793 3.76802,8.572507 1.02661,0.528053 1.59908,0.64322 3.15439,0.634583 2.39884,-0.01332 4.27525,-0.817344 5.92449,-2.538585 l 1.1527,-1.203025 v 3.809685 3.809684 l -1.8438,0.767577 c -2.81891,1.173517 -5.07968,1.464497 -8.01766,1.031939 z"
       id="path6144"
       transform="matrix(0.26458333,0,0,0.26458333,10.010758,36.651509)" />
    <path
       style="fill:#000000;fill-opacity:1;stroke:#0000d2;stroke-width:0.215711;stroke-linecap:round;stroke-dasharray:none"
       d="m 441.86938,73.649492 c -2.30228,-0.647646 -4.04599,-2.641377 -4.88938,-5.590464 -0.37221,-1.301496 -0.44729,-3.091508 -0.53226,-12.690042 l -0.0989,-11.174812 h 3.30154 3.30153 v 9.205212 c 0,10.317594 0.11149,11.333387 1.39791,12.737124 0.83225,0.90814 0.84586,0.912365 2.93897,0.912365 1.71515,0 2.31236,-0.109256 3.23927,-0.592597 2.20199,-1.148252 2.0203,-0.08515 2.0203,-11.820912 V 44.194174 h 3.15673 3.15672 V 58.715117 73.23606 h -3.15672 -3.15673 v -2.020306 c 0,-1.111167 -0.0669,-2.020305 -0.14868,-2.020305 -0.0818,0 -0.9625,0.743627 -1.95717,1.652506 -0.99467,0.908878 -2.3767,1.930728 -3.07118,2.270778 -1.57038,0.768933 -3.86751,0.99053 -5.50193,0.530759 z"
       id="path6146"
       transform="matrix(0.26458333,0,0,0.26458333,10.010758,36.651509)" />
    <path
       style="fill:#000000;fill-opacity:1;stroke:#0000d2;stroke-width:0.215711;stroke-linecap:round;stroke-dasharray:none"
       d="m 471.82079,73.756205 c -1.56177,-0.248611 -4.72602,-1.186677 -5.69852,-1.689367 l -0.69448,-0.358978 v -3.401099 -3.4011 l 1.61825,1.107901 c 2.78387,1.905913 6.23295,2.881751 8.98808,2.542976 2.5302,-0.311118 3.61998,-1.234023 3.61998,-3.06567 0,-1.828125 -0.75616,-2.345501 -4.89792,-3.351232 -5.08568,-1.234942 -6.94087,-2.364515 -8.24498,-5.020156 -0.63528,-1.293645 -0.70461,-1.695723 -0.70461,-4.086471 0,-2.191575 0.0955,-2.858344 0.55035,-3.842931 1.22013,-2.641073 4.16912,-4.854635 7.34918,-5.516416 2.36775,-0.492736 6.58675,-0.175393 9.1468,0.688001 l 2.14657,0.723946 0.0704,3.330152 0.0704,3.330153 -1.26637,-0.852201 c -1.91583,-1.28926 -3.89846,-1.955331 -6.22954,-2.092838 -3.49725,-0.206298 -5.39803,0.817335 -5.39803,2.907024 0,2.133627 0.50206,2.478663 5.40251,3.712889 1.84416,0.464468 3.92723,1.135464 4.62904,1.4911 2.59518,1.315079 3.94611,3.791186 3.94611,7.232799 0,5.738164 -4.09955,9.420773 -10.8194,9.719016 -1.25091,0.05552 -2.86361,0.0071 -3.58378,-0.107498 z"
       id="path6148"
       transform="matrix(0.26458333,0,0,0.26458333,10.010758,36.651509)" />
  </g>
</svg>
