<?xml version="1.0" encoding="UTF-8"?>
<!-- Created with Inkscape (http://www.inkscape.org/) -->
<svg class="w-[180px] h-auto" viewBox="0 0 180 36" version="1.1" xmlns="http://www.w3.org/2000/svg" xmlns:cc="http://creativecommons.org/ns#" xmlns:dc="http://purl.org/dc/elements/1.1/" xmlns:rdf="http://www.w3.org/1999/02/22-rdf-syntax-ns#">
 <title>Throughput Focus Logo</title>
 <metadata>
  <rdf:RDF>
   <cc:Work rdf:about="">
    <dc:format>image/svg+xml</dc:format>
    <dc:type rdf:resource="http://purl.org/dc/dcmitype/StillImage"/>
    <dc:title>Throughput Focus Logo</dc:title>
   </cc:Work>
  </rdf:RDF>
 </metadata>
 <g transform="translate(-10.011 -36.652)">
  <path transform="scale(.26458)" d="m510.22 147.79-0.0176 14.484-113.98-1.2637-19.318 19.791-18.297-18.275-272.08-1.0098v68.5l272.28-0.50391 19.352-17.707 18.373 17.707 112.91-0.50585 0.17382 11.459 63.783-40.525zm-384.44 22.781h7.502v14.895c1.3336-1.3371 2.6116-2.3611 3.834-3.0742 1.2363-0.7131 2.6052-1.0703 4.1055-1.0703 2.5282 0 4.4991 0.94427 5.916 2.834 1.4308 1.8897 2.1465 4.715 2.1465 8.4766v19.549h-7.543v-14.895c0-1.2123-0.0473-2.4169-0.14453-3.6113-0.0972-1.2123-0.26384-2.1033-0.5-2.6738-0.27782-0.65962-0.6887-1.1403-1.2305-1.4434-0.52787-0.30307-1.27-0.45508-2.2285-0.45508-0.68068 0-1.3755 0.14249-2.084 0.42773-0.69456 0.28524-1.4519 0.74128-2.2715 1.3652v21.285h-7.502zm141.28 0h7.5v14.895c1.3336-1.3371 2.6116-2.3611 3.834-3.0742 1.2363-0.7131 2.6052-1.0703 4.1055-1.0703 2.5282 0 4.5011 0.94427 5.918 2.834 1.4308 1.8897 2.1465 4.715 2.1465 8.4766v19.549h-7.543v-14.895c0-1.2123-0.0492-2.4169-0.14648-3.6113-0.0972-1.2123-0.26385-2.1033-0.5-2.6738-0.27783-0.65962-0.68675-1.1403-1.2285-1.4434-0.52786-0.30307-1.272-0.45508-2.2305-0.45508-0.68068 0-1.3755 0.14249-2.084 0.42773-0.69456 0.28524-1.4519 0.74128-2.2715 1.3652v21.285h-7.5zm-173.05 1.791h27.379v7.7012h-9.6894v32.117h-8v-32.117h-9.6895zm298.16 0h22.232v7.7012h-14.273v7.4082h13.23v7.7012h-13.23v17.008h-7.959zm-33.986 1.2031h7.502v8.584h7.0215v6.5254h-7.0215v10.643c0 1.0518 8e-3 1.9714 0.0215 2.7559 0.0139 0.78441 0.12366 1.4874 0.33203 2.1113 0.19448 0.62396 0.53529 1.1237 1.0215 1.498 0.50009 0.35655 1.2234 0.53515 2.168 0.53515 0.38896 0 0.89442-0.10833 1.5195-0.32226 0.639-0.21393 1.0839-0.40962 1.334-0.58789h0.625v6.6055c-0.8057 0.26741-1.6596 0.47261-2.5625 0.61523-0.90294 0.16045-2.0067 0.24023-3.3125 0.24023-2.9172 0-5.0926-0.7581-6.5234-2.2734-1.4169-1.5153-2.125-4.1088-2.125-7.7812v-14.039h-3.084v-6.5254h3.084zm-169.61 7.6484c4.084 0 7.2383 1.4269 9.4609 4.2793 2.2365 2.8524 3.3555 6.7473 3.3555 11.686s-1.1266 8.8332-3.377 11.686c-2.2365 2.8346-5.3832 4.252-9.4394 4.252-4.0563 0-7.2086-1.4174-9.459-4.252-2.2365-2.8524-3.3555-6.7473-3.3555-11.686 0-4.9739 1.1266-8.8783 3.377-11.713 2.2643-2.8346 5.409-4.252 9.4375-4.252zm242.04 0c4.084 0 7.2383 1.4269 9.4609 4.2793 2.2365 2.8524 3.3535 6.7473 3.3535 11.686s-1.1246 8.8332-3.375 11.686c-2.2365 2.8346-5.3832 4.252-9.4394 4.252-4.0563 0-7.2106-1.4174-9.4609-4.252-2.2365-2.8524-3.3535-6.7473-3.3535-11.686 0-4.9739 1.1246-8.8783 3.375-11.713 2.2643-2.8346 5.411-4.252 9.4395-4.252zm-184.45 0.10742c1.2641 0 2.4115 0.19568 3.4394 0.58789 1.0418 0.37438 1.9847 0.90068 2.832 1.5781l0.27149-1.3379h7.2715v26.582c0 2.8167-0.31239 5.1879-0.9375 7.1133s-1.4998 3.432-2.625 4.5195c-1.1252 1.1053-2.4865 1.8976-4.084 2.3789-1.5836 0.49917-3.3747 0.74805-5.375 0.74805-1.6253 0-3.2308-0.12346-4.8145-0.37305-1.5697-0.24958-2.931-0.5536-4.084-0.91015v-7.5137h0.91797c0.91682 0.46351 2.0338 0.88148 3.3535 1.2558 1.3197 0.39221 2.5011 0.58985 3.543 0.58985 1.3891 0 2.5137-0.16909 3.375-0.50781 0.87515-0.3209 1.5416-0.78449 2-1.3906 0.43063-0.57048 0.74302-1.302 0.9375-2.1934 0.19448-0.89137 0.29297-1.9611 0.29297-3.209v-0.5625c-0.90294 0.94485-1.9026 1.6934-3 2.2461s-2.3205 0.83008-3.668 0.83008c-3.2784 0-5.8059-1.2654-7.584-3.7969-1.7781-2.5315-2.668-6.3828-2.668-11.553 0-2.478 0.27074-4.6174 0.8125-6.418s1.3067-3.37 2.293-4.707c0.91682-1.2479 2.0414-2.2188 3.375-2.9141 1.3474-0.69527 2.722-1.043 4.125-1.043zm66.512 0c2.9172 0 5.1816 1.3718 6.793 4.1172 1.6253 2.7454 2.4375 6.5169 2.4375 11.312 0 2.478-0.2972 4.7333-0.89453 6.7656-0.58343 2.0323-1.356 3.7081-2.3144 5.0274-1.0002 1.3905-2.1324 2.4432-3.3965 3.1562-1.2641 0.7131-2.6178 1.0684-4.0625 1.0684-1.3336 0-2.4658-0.18617-3.3965-0.56054-0.93072-0.35655-1.8831-0.86578-2.8555-1.5254v12.516h-7.5v-41.049h7.5v3.1289c1.153-1.1766 2.3268-2.1304 3.5215-2.8613 1.2085-0.73093 2.5982-1.0957 4.168-1.0957zm148.13 0c1.5975 0 3.0686 0.22228 4.416 0.66797 1.3475 0.44568 2.6046 1.0252 3.7715 1.7383v8.209h-1.0625c-0.29172-0.32089-0.64577-0.69518-1.0625-1.123-0.40285-0.42786-0.90268-0.84583-1.5-1.2559-0.56955-0.39221-1.1943-0.71331-1.875-0.96289-0.68068-0.26742-1.4721-0.40039-2.375-0.40039-2.0004 0-3.5434 0.81885-4.627 2.459-1.0696 1.6223-1.6035 3.8339-1.6035 6.6328 0 2.8881 0.54907 5.0806 1.6465 6.5781 1.1113 1.4975 2.6808 2.2461 4.709 2.2461 0.9446 0 1.7909-0.13298 2.541-0.40039 0.76402-0.28524 1.3964-0.61586 1.8965-0.99023 0.4723-0.35655 0.88882-0.73085 1.25-1.123 0.36117-0.39221 0.69439-0.77601 1-1.1504h1.0625v8.2109c-1.1808 0.7131-2.4171 1.2736-3.709 1.6836-1.278 0.42786-2.6942 0.64258-4.25 0.64258-2.042 0-3.9107-0.31159-5.6055-0.93555-1.6808-0.62396-3.1463-1.5873-4.3965-2.8887-1.2363-1.3014-2.1943-2.9411-2.875-4.9199-0.68068-1.9788-1.0215-4.2968-1.0215-6.9531 0-2.7989 0.36164-5.2157 1.084-7.248 0.73624-2.0323 1.7567-3.7157 3.0625-5.0527 1.2641-1.2658 2.7239-2.1929 4.377-2.7812s3.3684-0.88281 5.1465-0.88281zm54.029 0c1.7503 0 3.424 0.2318 5.0215 0.69531 1.6114 0.44569 2.8686 0.92636 3.7715 1.4434v7.5957h-0.64453c-1.1113-0.98051-2.3836-1.7747-3.8144-2.3809-1.4169-0.62396-2.8539-0.93554-4.3125-0.93554-1.2086 0-2.229 0.21472-3.0625 0.64258-0.81959 0.42786-1.2305 1.034-1.2305 1.8184 0 0.7131 0.18743 1.2565 0.5625 1.6309 0.37506 0.37438 1.2574 0.74867 2.6465 1.123 0.76402 0.1961 1.5838 0.39179 2.459 0.58789 0.88904 0.17828 1.7789 0.41007 2.668 0.69531 1.9726 0.65962 3.4304 1.7027 4.375 3.1289 0.94461 1.4084 1.416 3.1734 1.416 5.2949 0 3.102-1.083 5.6061-3.25 7.5137-2.167 1.8897-5.1319 2.834-8.8965 2.834-2.0837 0-3.9732-0.24888-5.668-0.74805s-3.056-1.0521-4.084-1.6582v-7.916h0.6875c0.37507 0.33873 0.80482 0.71497 1.291 1.125 0.50009 0.39221 1.2025 0.81969 2.1055 1.2832 0.77791 0.41003 1.6602 0.76529 2.6465 1.0684 0.98628 0.28524 2.0408 0.42773 3.166 0.42773 1.4725 0 2.563-0.20325 3.2715-0.61328 0.70846-0.42786 1.0625-1.053 1.0625-1.873 0-0.73093-0.20826-1.2572-0.625-1.5781-0.41674-0.33873-1.2081-0.65983-2.375-0.96289-0.55565-0.16045-1.313-0.32954-2.2715-0.50782-0.94461-0.1961-1.8061-0.4279-2.584-0.69531-2.1254-0.7131-3.7006-1.8169-4.7285-3.3144-1.028-1.5153-1.543-3.3963-1.543-5.6426 0-2.888 1.0621-5.2858 3.1875-7.1934 2.1393-1.9254 5.0569-2.8887 8.752-2.8887zm-343.43 0.72266c0.26393-1e-5 0.56114 8e-3 0.89453 0.0254 0.33339 0.0178 0.62496 0.0444 0.875 0.0801v9.1738h-0.66602c-0.3195-0.14262-0.83256-0.25095-1.541-0.32226-0.70846-0.0713-1.2992-0.10547-1.7715-0.10547-1.0696 0-2.0144 0.0874-2.834 0.26562-0.81959 0.17828-1.7019 0.4823-2.6465 0.91016v20.109h-7.502v-30.031h7.502v4.4121c1.6531-1.8184 3.0901-3.0211 4.3125-3.6094 1.2224-0.60614 2.349-0.90821 3.377-0.9082zm35.213 0.10546h7.543v14.896c0 1.5153 0.036 2.7807 0.10547 3.7969 0.0833 0.99834 0.26319 1.8267 0.54101 2.4863 0.26394 0.65962 0.65963 1.1403 1.1875 1.4434 0.54176 0.30307 1.2915 0.45508 2.25 0.45508 0.639 0 1.349-0.15201 2.127-0.45508 0.77791-0.30307 1.5276-0.74763 2.25-1.3359v-21.287h7.5v30.031h-7.5v-3.3164c-1.3891 1.3549-2.6615 2.3885-3.8145 3.1016-1.153 0.69527-2.5275 1.043-4.125 1.043-2.5838 0-4.5774-0.95379-5.9805-2.8613-1.3891-1.9075-2.084-4.7233-2.084-8.4492zm120.52 0h7.543v14.896c0 1.5153 0.0341 2.7807 0.10352 3.7969 0.0833 0.99834 0.26514 1.8267 0.54297 2.4863 0.26393 0.65962 0.65963 1.1403 1.1875 1.4434 0.54176 0.30307 1.2915 0.45508 2.25 0.45508 0.639 0 1.3471-0.15201 2.125-0.45508 0.77791-0.30307 1.5296-0.74763 2.252-1.3359v-21.287h7.5v30.031h-7.5v-3.3164c-1.3891 1.3549-2.6615 2.3885-3.8144 3.1016-1.153 0.69527-2.5275 1.043-4.125 1.043-2.5838 0-4.5774-0.95379-5.9805-2.8613-1.3891-1.9075-2.084-4.7233-2.084-8.4492zm146.61 0h7.543v14.896c0 1.5153 0.0341 2.7807 0.10351 3.7969 0.0833 0.99834 0.26515 1.8267 0.54297 2.4863 0.26394 0.65962 0.65963 1.1403 1.1875 1.4434 0.54176 0.30307 1.2915 0.45508 2.25 0.45508 0.639 0 1.3471-0.15201 2.125-0.45508s1.5276-0.74763 2.25-1.3359v-21.287h7.502v30.031h-7.502v-3.3164c-1.3891 1.3549-2.6595 2.3885-3.8125 3.1016-1.153 0.69527-2.5275 1.043-4.125 1.043-2.5838 0-4.5774-0.95379-5.9805-2.8613-1.3891-1.9075-2.084-4.7233-2.084-8.4492zm-285.18 5.7774c-0.72235 0-1.368 0.12346-1.9375 0.37304-0.55566 0.24959-1.0895 0.7493-1.6035 1.498-0.45841 0.69527-0.82764 1.6491-1.1055 2.8613-0.26393 1.2123-0.39453 2.736-0.39453 4.5723 0 1.6401 0.11736 3.067 0.35352 4.2793 0.23615 1.1944 0.5826 2.1578 1.041 2.8887 0.44452 0.69528 0.97277 1.2026 1.584 1.5234 0.62511 0.3209 1.3332 0.48242 2.125 0.48242 0.68067 0 1.3282-0.14249 1.9394-0.42773 0.62511-0.30307 1.1514-0.80278 1.582-1.498 0.4862-0.76658 0.84783-1.6842 1.084-2.7539 0.25004-1.0875 0.375-2.5866 0.375-4.4941 0-1.7649-0.12496-3.2431-0.375-4.4375-0.25005-1.1944-0.5965-2.1482-1.041-2.8613-0.44452-0.73093-0.98036-1.2477-1.6055-1.5508-0.62511-0.30307-1.2991-0.45508-2.0215-0.45508zm242.04 0c-0.72235 0-1.368 0.12346-1.9375 0.37304-0.55566 0.24959-1.0915 0.7493-1.6055 1.498-0.45842 0.69527-0.82569 1.6491-1.1035 2.8613-0.26393 1.2123-0.39648 2.736-0.39648 4.5723 0 1.6401 0.11931 3.067 0.35547 4.2793 0.23615 1.1944 0.5826 2.1578 1.041 2.8887 0.44452 0.69528 0.97277 1.2026 1.584 1.5234 0.6251 0.3209 1.3332 0.48242 2.125 0.48242 0.68067 0 1.3263-0.14249 1.9375-0.42773 0.6251-0.30307 1.1534-0.80278 1.584-1.498 0.4862-0.76658 0.84783-1.6842 1.084-2.7539 0.25005-1.0875 0.375-2.5866 0.375-4.4941 0-1.7649-0.12495-3.2431-0.375-4.4375-0.25004-1.1944-0.59844-2.1482-1.043-2.8613-0.44453-0.73093-0.97841-1.2477-1.6035-1.5508-0.62511-0.30307-1.2991-0.45508-2.0215-0.45508zm-181.41 0.42773c-1.9726 0-3.4532 0.73151-4.4395 2.1934-0.98628 1.444-1.4785 3.4675-1.4785 6.0703 0 2.8881 0.41652 4.902 1.25 6.043 0.84737 1.141 2.0969 1.7109 3.75 1.7109 0.75013 0 1.4866-0.15201 2.209-0.45508s1.3831-0.70395 1.9805-1.2031v-13.611c-0.43063-0.23176-0.95888-0.41037-1.584-0.53516-0.62511-0.14262-1.1874-0.21289-1.6875-0.21289zm60.115 0.24024c-0.70846 0-1.4393 0.14249-2.1894 0.42773-0.75013 0.26741-1.4658 0.66074-2.1465 1.1777v15.107c0.50009 0.24958 1.0359 0.41111 1.6055 0.48242 0.56954 0.0713 1.1318 0.10547 1.6875 0.10547 1.9865 0 3.4651-0.73907 4.4375-2.2188 0.97239-1.4975 1.459-3.7433 1.459-6.7383 0-2.9237-0.38811-5.046-1.166-6.3652-0.77791-1.3192-2.0066-1.9785-3.6875-1.9785z" fill="#f3ed0d" stroke="#000" stroke-width=".85417"/>
  <text x="25.256971" y="40.087166" fill="#000000" font-family="sans-serif" font-size="14.111px" font-weight="bold" letter-spacing="0px" stroke-width=".26458" word-spacing="0px" style="line-height:1.25" xml:space="preserve"><tspan x="25.256971" y="52.961159" font-family="sans-serif" font-size="14.111px" font-weight="bold" stroke-width=".26458"/></text>
  <g stroke="#0000d2" stroke-linecap="round" stroke-width=".21571">
   <path transform="matrix(.26458 0 0 .26458 10.011 36.652)" d="m66.418 57.074v-16.162h-9.5964v-6.566h26.264v6.566h-9.849v32.325h-6.8185z"/>
   <path transform="matrix(.26458 0 0 .26458 10.011 36.652)" d="m88.388 52.907v-20.329h6.566v7.7024c0 4.2363 0.07075 7.7024 0.15722 7.7024 0.08647 0 0.90306-0.69769 1.8146-1.5504 0.96416-0.90193 2.3313-1.8658 3.2685-2.3043 1.4621-0.68422 1.7932-0.74337 3.5813-0.63986 3.3014 0.19112 5.2264 1.7717 6.3955 5.2511 0.52941 1.5756 0.55537 2.1088 0.63648 13.07l0.0846 11.427h-6.3417l-9e-3 -7.6393c-0.013-11.635-0.28691-13.59-2.0934-14.936-1.0463-0.77992-3.9045-0.74146-5.4742 0.07366-2.2044 1.1447-2.0203 0.05733-2.0203 11.935v10.567h-6.566z"/>
   <path transform="matrix(.26458 0 0 .26458 10.011 36.652)" d="m118.95 58.715v-14.521h6.3135v2.5254c0 1.389 0.0529 2.5254 0.11756 2.5254 0.0647 0 0.91869-0.80114 1.8979-1.7803 2.1762-2.1762 4.2683-3.27 6.2552-3.2703l1.3258-1.99e-4v8.0908l-0.69448-0.19422c-0.38196-0.10682-1.7741-0.18931-3.0936-0.18332-1.8665 0.0085-2.7775 0.14498-4.1037 0.61491l-1.7046 0.60402v20.11h-6.3135z"/>
   <path transform="matrix(.26458 0 0 .26458 10.011 36.652)" d="m147.24 73.589c-4.0826-1.0971-7.1068-4.6582-8.2438-9.7075-0.63066-2.8005-0.57329-8.3453 0.11277-10.901 1.8755-6.9853 6.8334-10.522 13.44-9.5881 4.7429 0.67074 7.7381 3.3561 9.485 8.5039 0.91271 2.6895 1.1515 8.2225 0.49716 11.517-1.0932 5.5041-4.4187 9.337-8.9327 10.296-1.813 0.38498-4.6787 0.3306-6.358-0.12067zm6.2265-5.9514c2.0608-1.3637 3.0264-4.8991 2.782-10.185-0.24855-5.3742-1.5944-7.9344-4.4451-8.4557-1.8395-0.33637-3.2971 0.10212-4.49 1.3507-1.6493 1.7263-1.9758 3.1394-1.9627 8.4939 0.01 3.9742 0.068 4.5636 0.57851 5.8506 0.31225 0.78712 0.80985 1.739 1.1058 2.1152 1.3433 1.7078 4.4915 2.1142 6.4315 0.83034z"/>
   <path transform="matrix(.26458 0 0 .26458 10.011 36.652)" d="m175.09 73.766c-1.3504-0.34657-3.0929-1.5187-3.763-2.5314-1.8319-2.7682-2.1088-5.1035-2.1207-17.886l-9e-3 -9.1545h6.5339l0.0792 9.7859c0.0764 9.4377 0.0988 9.8283 0.63022 10.979 0.7277 1.5752 1.7797 2.2143 3.6472 2.2155 1.5842 0.0011 2.9935-0.42066 4.3556-1.3033l0.9101-0.58976 6e-3 -21.087h6.3135v29.042h-6.3135v-2.0203c0-1.1112-0.0683-2.0203-0.15181-2.0203-0.0835 0-0.946 0.7353-1.9167 1.634-0.97069 0.8987-2.3513 1.9206-3.0681 2.2708-1.4173 0.69253-3.8171 1.0038-5.1337 0.66595z"/>
   <path transform="matrix(.26458 0 0 .26458 10.011 36.652)" d="m204.79 84.093c-0.63394-0.10735-1.7988-0.32933-2.5885-0.49328l-1.4359-0.29809v-3.2921c0-3.0329 0.0348-3.2785 0.44194-3.1191 6.7507 2.6423 11.811 1.9967 13.33-1.7005 0.27712-0.6748 0.48648-2.0467 0.56678-3.714l0.12733-2.6439-1.3614 1.2292c-2.4418 2.2047-4.8447 2.9692-7.6176 2.4237-2.1001-0.41317-3.1253-0.97836-4.5633-2.5157-2.37-2.5337-3.3145-5.9269-3.3084-11.886 5e-3 -4.4443 0.32062-6.0637 1.7567-9.0016 1.1134-2.2778 3.268-4.3585 5.3008-5.1191 2.7131-1.0151 5.974-0.53005 8.4385 1.2552 1.0633 0.77025 1.1527 0.74395 1.335-0.39275 0.0751-0.46853 0.3046-0.51021 3.1715-0.57598l3.0905-0.07091-4e-3 14.718c-5e-3 16.1-0.0521 16.731-1.4813 19.785-1.2944 2.766-3.5533 4.4947-6.9064 5.2853-1.6813 0.3964-6.2824 0.4664-8.2916 0.12614zm8.9084-18.623 1.3355-0.75441 0.067-7.2417 0.067-7.2417-0.9509-0.41194c-1.491-0.64592-4.4781-0.57918-5.8157 0.12993-2.3796 1.2615-3.4456 3.8632-3.4359 8.3858 0.01 4.586 0.81303 6.4834 3.2238 7.6156 1.5088 0.70853 3.7489 0.51271 5.5091-0.48157z"/>
   <path transform="matrix(.26458 0 0 .26458 10.011 36.652)" d="m229.81 52.907v-20.329h6.3135v7.7024c0 4.2363 0.0668 7.7024 0.14854 7.7024 0.0817 0 0.9056-0.68572 1.8309-1.5238 2.271-2.057 3.9668-2.8663 6.2484-2.982 3.8172-0.19361 6.1865 1.8223 7.3734 6.2736 0.2883 1.0813 0.39725 3.8365 0.49181 12.438l0.12147 11.049h-6.618l-5e-3 -8.6494c-7e-3 -11.739-0.28183-13.28-2.5303-14.18-1.8399-0.7362-4.0278-0.37905-6.1141 0.99808l-0.94702 0.62511v21.206h-6.3135z"/>
   <path transform="matrix(.26458 0 0 .26458 10.011 36.652)" d="m260.11 64.145v-19.951h6.566v3.8354l1.7812-1.6491c2.1978-2.0348 3.647-2.7673 5.7417-2.9019 2.2646-0.14554 3.6414 0.31757 5.2124 1.7534 2.2196 2.0286 3.424 5.0796 3.939 9.9784 0.85057 8.0902-1.9235 15.315-6.8 17.71-1.2082 0.59333-1.7088 0.69061-3.4346 0.66747-2.0901-0.02803-3.6152-0.53662-5.619-1.8739l-0.82075-0.54774v12.929h-6.566zm13.401 3.007c2.4362-1.3435 3.4209-4.3997 3.2163-9.9827-0.16781-4.5802-1.0168-6.4114-3.393-7.3189-1.4651-0.55951-3.2196-0.36696-5.0661 0.55598l-1.4664 0.73292v16.162l0.88388 0.31648c1.4335 0.51327 4.4932 0.26839 5.8252-0.46621z"/>
   <path transform="matrix(.26458 0 0 .26458 10.011 36.652)" d="m295.65 73.733c-2.8745-0.72049-4.7972-3.081-5.4688-6.7143-0.16221-0.87745-0.26824-5.6753-0.26824-12.138v-10.686h6.2677l0.0999 9.6596c0.0914 8.8369 0.14175 9.7649 0.59109 10.896 0.68431 1.7225 1.4997 2.2611 3.603 2.38 1.8091 0.10222 2.9514-0.22405 4.5257-1.2927l0.81902-0.55596 4e-3 -21.087h6.3135v29.042h-6.3135v-4.0783l-1.9572 1.6923c-1.0764 0.93075-2.5534 1.9702-3.2822 2.3098-1.4921 0.69539-3.5094 0.92952-4.9334 0.57258z"/>
   <path transform="matrix(.26458 0 0 .26458 10.011 36.652)" d="m326.61 73.477c-2.3493-0.46453-4.0758-1.8677-4.9419-4.0164-0.54351-1.3484-0.56816-1.7568-0.64498-10.683l-0.0799-9.2808h-3.2545v-5.3033h3.283v-8.5863h6.3134v8.5863h7.0711v5.3033h-7.0973l0.0763 8.0181c0.068 7.1521 0.12532 8.1079 0.53047 8.85 0.92632 1.6967 3.1078 2.278 5.4487 1.4521l1.0419-0.3676v2.7497c0 3.1172 0.21081 2.8436-2.5254 3.2773-1.8872 0.29916-3.7088 0.29925-5.2209 2.53e-4z"/>
   <path transform="matrix(.26458 0 0 .26458 10.011 36.652)" d="m354.82 53.791v-19.445h21.213v6.566h-14.395v8.5863h13.385v6.566h-13.385v17.173h-6.8185z"/>
   <path transform="matrix(.26458 0 0 .26458 10.011 36.652)" d="m389.54 73.644c-2.8114-0.68369-5.7053-3.0157-7.0602-5.6894-1.4335-2.8289-1.7788-4.6249-1.7765-9.2392 2e-3 -4.7726 0.28231-6.2721 1.7176-9.2034 2.1926-4.4779 7.1685-6.9434 12.333-6.1111 4.8959 0.78896 8.0807 3.9644 9.611 9.5827 0.75703 2.7793 0.75034 8.6588-0.0131 11.493-1.6835 6.2503-5.7452 9.5622-11.646 9.4957-1.0473-0.01181-2.4723-0.15966-3.1668-0.32854zm5.3033-5.6808c1.2805-0.58799 1.7032-1.0718 2.5695-2.9412 0.64383-1.3892 0.70684-1.8046 0.79753-5.2574 0.14312-5.4493-0.64281-8.6137-2.476-9.969-1.3618-1.0068-3.9506-1.1665-5.4896-0.3386-1.6758 0.90148-2.7933 3.8138-3.0151 7.8572-0.25608 4.6695 0.55558 8.1605 2.2876 9.8393 1.3649 1.3229 3.5011 1.6477 5.326 0.80972z"/>
   <path transform="matrix(.26458 0 0 .26458 10.011 36.652)" d="m420.72 73.726c-7.3015-1.075-11.195-6.959-10.768-16.273 0.28301-6.1704 2.6172-10.514 6.7983-12.651 3.6192-1.85 8.4931-1.8325 12.461 0.0448l1.3693 0.64776v3.6435c0 2.0039-0.0567 3.6435-0.12598 3.6435-0.0693 0-0.60909-0.47129-1.1996-1.0473-1.6568-1.6163-3.721-2.489-5.8718-2.4825-2.2087 0.0067-3.4908 0.55559-4.7593 2.0376-1.4365 1.6782-2.052 3.9539-2.043 7.5532 0.0117 4.6502 1.142 7.2218 3.768 8.5725 1.0266 0.52805 1.5991 0.64322 3.1544 0.63458 2.3988-0.01332 4.2752-0.81734 5.9245-2.5386l1.1527-1.203v7.6194l-1.8438 0.76758c-2.8189 1.1735-5.0797 1.4645-8.0177 1.0319z"/>
   <path transform="matrix(.26458 0 0 .26458 10.011 36.652)" d="m441.87 73.649c-2.3023-0.64765-4.046-2.6414-4.8894-5.5905-0.37221-1.3015-0.44729-3.0915-0.53226-12.69l-0.0989-11.175h6.6031v9.2052c0 10.318 0.11149 11.333 1.3979 12.737 0.83225 0.90814 0.84586 0.91236 2.939 0.91236 1.7152 0 2.3124-0.10926 3.2393-0.5926 2.202-1.1483 2.0203-0.08515 2.0203-11.821v-10.441h6.3134v29.042h-6.3134v-2.0203c0-1.1112-0.0669-2.0203-0.14868-2.0203-0.0818 0-0.9625 0.74363-1.9572 1.6525-0.99467 0.90888-2.3767 1.9307-3.0712 2.2708-1.5704 0.76893-3.8675 0.99053-5.5019 0.53076z"/>
   <path transform="matrix(.26458 0 0 .26458 10.011 36.652)" d="m471.82 73.756c-1.5618-0.24861-4.726-1.1867-5.6985-1.6894l-0.69448-0.35898v-6.8022l1.6182 1.1079c2.7839 1.9059 6.233 2.8818 8.9881 2.543 2.5302-0.31112 3.62-1.234 3.62-3.0657 0-1.8281-0.75616-2.3455-4.8979-3.3512-5.0857-1.2349-6.9409-2.3645-8.245-5.0202-0.63528-1.2936-0.70461-1.6957-0.70461-4.0865 0-2.1916 0.0955-2.8583 0.55035-3.8429 1.2201-2.6411 4.1691-4.8546 7.3492-5.5164 2.3678-0.49274 6.5868-0.17539 9.1468 0.688l2.1466 0.72395 0.0704 3.3302 0.0704 3.3302-1.2664-0.8522c-1.9158-1.2893-3.8985-1.9553-6.2295-2.0928-3.4972-0.2063-5.398 0.81734-5.398 2.907 0 2.1336 0.50206 2.4787 5.4025 3.7129 1.8442 0.46447 3.9272 1.1355 4.629 1.4911 2.5952 1.3151 3.9461 3.7912 3.9461 7.2328 0 5.7382-4.0996 9.4208-10.819 9.719-1.2509 0.05552-2.8636 0.0071-3.5838-0.1075z"/>
  </g>
 </g>
</svg>
