<?xml version="1.0" encoding="UTF-8" standalone="no"?>
<!-- Created with Inkscape (http://www.inkscape.org/) -->

<svg
   width="300"
   height="300"
   viewBox="0 0 300 300"
   version="1.1"
   id="svg5"
   inkscape:version="1.1.1 (3bf5ae0d25, 2021-09-20)"
   sodipodi:docname="2022-01-22 throughputfocus_logo-square.svg"
   inkscape:export-filename="C:\Users\rnwol\Downloads\2022-01-22 Throughputfocus logo square.png"
   inkscape:export-xdpi="96"
   inkscape:export-ydpi="96"
   xmlns:inkscape="http://www.inkscape.org/namespaces/inkscape"
   xmlns:sodipodi="http://sodipodi.sourceforge.net/DTD/sodipodi-0.dtd"
   xmlns="http://www.w3.org/2000/svg"
   xmlns:svg="http://www.w3.org/2000/svg">
  <sodipodi:namedview
     id="namedview7"
     pagecolor="#ffffff"
     bordercolor="#666666"
     borderopacity="1.0"
     inkscape:pageshadow="2"
     inkscape:pageopacity="0.0"
     inkscape:pagecheckerboard="0"
     inkscape:document-units="px"
     showgrid="false"
     inkscape:zoom="2.0223254"
     inkscape:cx="64.035195"
     inkscape:cy="137.21827"
     inkscape:window-width="1920"
     inkscape:window-height="1017"
     inkscape:window-x="-8"
     inkscape:window-y="-8"
     inkscape:window-maximized="1"
     inkscape:current-layer="layer1" />
  <defs
     id="defs2" />
  <g
     inkscape:label="Layer 1"
     inkscape:groupmode="layer"
     id="layer1">
    <g
       id="layer2"
       inkscape:label="Layer 2"
       style="display:inline;stroke-width:0.529167;stroke-miterlimit:4;stroke-dasharray:none"
       transform="matrix(4.2620649,0,0,4.2770283,-205.73824,-151.11669)">
      <path
         style="fill:#f3f207;fill-opacity:0.980296;stroke:#000000;stroke-width:0.529167;stroke-linejoin:round;stroke-miterlimit:4;stroke-dasharray:none;stroke-opacity:1"
         d="m 100.83194,43.726897 -0.0946,7.196461 H 82.612897 L 77.79407,55.648136 72.407834,50.923358 H 51.943451 v 40.090576 l 20.936706,-0.283186 4.535641,-5.103048 5.197099,5.103048 18.124473,0.283186 v 6.857979 l 16.25275,-25.580351 z m -40.914816,13.78934 h 1.396297 v 3.340365 c 0.248253,-0.299858 0.486089,-0.52944 0.713652,-0.689364 0.230151,-0.159925 0.485013,-0.239779 0.764294,-0.239779 0.470644,0 0.837975,0.21182 1.101741,0.635622 0.266353,0.423799 0.39946,1.057571 0.39946,1.901174 v 4.383712 h -1.404564 v -3.340365 c 0,-0.271872 -0.0088,-0.541896 -0.02687,-0.809768 -0.0181,-0.271872 -0.04906,-0.471508 -0.09302,-0.599448 -0.05172,-0.147931 -0.128074,-0.256042 -0.228925,-0.324011 -0.09827,-0.06797 -0.236533,-0.101801 -0.414962,-0.101801 -0.126712,0 -0.256207,0.03163 -0.388091,0.0956 -0.129297,0.06397 -0.270142,0.165992 -0.422714,0.305925 v 4.773869 h -1.396297 z m 26.299171,0 h 1.396296 v 3.340365 c 0.24825,-0.299858 0.486087,-0.52944 0.713652,-0.689364 0.230148,-0.159925 0.485011,-0.239779 0.764294,-0.239779 0.470644,0 0.837457,0.21182 1.101225,0.635622 0.266354,0.423799 0.399976,1.057571 0.399976,1.901174 v 4.383712 h -1.404567 v -3.340365 c 0,-0.271872 -0.0088,-0.541896 -0.02687,-0.809768 -0.0181,-0.271872 -0.04906,-0.471508 -0.09302,-0.599448 -0.05172,-0.147931 -0.128074,-0.256042 -0.228928,-0.324011 -0.09827,-0.06797 -0.236529,-0.101801 -0.414959,-0.101801 -0.126712,0 -0.256207,0.03163 -0.388091,0.0956 -0.129299,0.06397 -0.270142,0.165992 -0.422714,0.305925 v 4.773869 h -1.396296 z m -32.214571,0.402042 h 5.096846 v 1.727028 h -1.803509 v 7.20266 H 55.80523 v -7.20266 h -1.803506 z m 49.176846,0.269751 h 1.39629 v 1.92495 h 1.30742 v 1.463473 h -1.30742 v 2.386936 c 0,0.23589 0.002,0.441616 0.004,0.617533 0.003,0.175918 0.0232,0.333938 0.062,0.473874 0.0362,0.139932 0.0997,0.251936 0.19017,0.335896 0.0931,0.07996 0.22723,0.119891 0.40308,0.119891 0.0724,0 0.16682,-0.02387 0.28319,-0.07183 0.11895,-0.04798 0.20201,-0.09179 0.24856,-0.131776 h 0.11627 v 1.481048 c -0.14998,0.05997 -0.30888,0.105992 -0.47697,0.137977 -0.16809,0.03598 -0.37394,0.05374 -0.61702,0.05374 -0.54305,0 -0.94753,-0.16969 -1.21388,-0.509529 -0.26377,-0.339841 -0.39584,-0.921501 -0.39584,-1.745112 V 61.576453 H 102.6043 V 60.11298 h 0.57412 z m -31.574303,1.715143 c 0.760267,0 1.34738,0.319931 1.761133,0.95963 0.416338,0.639699 0.62425,1.513549 0.62425,2.621029 0,1.10748 -0.20946,1.980811 -0.628385,2.620513 -0.416338,0.635701 -1.001901,0.953428 -1.756998,0.953428 -0.755099,0 -1.34221,-0.317727 -1.761132,-0.953428 -0.416341,-0.639702 -0.624769,-1.513033 -0.624769,-2.620513 0,-1.115475 0.209979,-1.991529 0.628901,-2.62723 0.421511,-0.635702 1.007073,-0.953429 1.757,-0.953429 z m 10.721309,0.02429 c 0.23532,0 0.448394,0.04382 0.639754,0.131775 0.193945,0.08396 0.369874,0.202055 0.527616,0.353984 l 0.05064,-0.300239 h 1.353405 v 5.961391 c 0,0.631703 -0.05778,1.163455 -0.174149,1.595252 -0.116369,0.431797 -0.279397,0.76949 -0.48886,1.013375 -0.209463,0.247883 -0.462775,0.425868 -0.760161,0.533818 -0.294796,0.111948 -0.628595,0.167947 -1.000972,0.167947 -0.302556,0 -0.601271,-0.02774 -0.896069,-0.08371 -0.292212,-0.05598 -0.545526,-0.124161 -0.760159,-0.204123 v -1.685169 h 0.170532 c 0.170672,0.103953 0.379103,0.197676 0.624766,0.281639 0.245666,0.08796 0.465447,0.132291 0.659392,0.132291 0.258596,0 0.468056,-0.03824 0.628385,-0.114207 0.162915,-0.07196 0.286734,-0.175673 0.372071,-0.311608 0.08017,-0.127939 0.138464,-0.292052 0.174667,-0.491958 0.0362,-0.199906 0.05426,-0.439468 0.05426,-0.719336 v -0.126092 c -0.168088,0.211902 -0.354333,0.379904 -0.558623,0.503846 -0.20429,0.123941 -0.431808,0.185518 -0.682646,0.185518 -0.610286,0 -1.080799,-0.283377 -1.411801,-0.851109 -0.331002,-0.567735 -0.49661,-1.431603 -0.49661,-2.591057 0,-0.555739 0.05056,-1.035378 0.151413,-1.439191 0.100852,-0.403809 0.243245,-0.75589 0.426847,-1.055748 0.170673,-0.279868 0.380133,-0.497779 0.628386,-0.653706 0.250835,-0.155927 0.50673,-0.233579 0.767911,-0.233579 z m 12.381674,0 c 0.543049,0 0.964552,0.307747 1.26452,0.923459 0.302557,0.615709 0.453721,1.461302 0.453721,2.536796 0,0.555739 -0.05572,1.061434 -0.166915,1.517219 -0.108611,0.455787 -0.252034,0.83172 -0.430466,1.12758 -0.186188,0.311853 -0.397198,0.547526 -0.632519,0.70745 -0.235323,0.159925 -0.487087,0.239779 -0.756025,0.239779 -0.248254,0 -0.459261,-0.04161 -0.632521,-0.125574 -0.173257,-0.07996 -0.350216,-0.194167 -0.531233,-0.342098 v 2.807065 h -1.396296 v -9.206156 h 1.396296 v 0.701765 c 0.214632,-0.263877 0.432866,-0.477898 0.655256,-0.641821 0.224978,-0.163922 0.483968,-0.245464 0.776182,-0.245464 z M 68.40808,60.08921 c 0.04913,0 0.104335,0.0021 0.166396,0.0062 0.06206,0.004 0.116753,0.0096 0.163298,0.01757 v 2.057239 h -0.124023 c -0.05948,-0.03199 -0.155438,-0.05584 -0.287322,-0.07183 -0.131881,-0.01598 -0.241773,-0.02429 -0.329694,-0.02429 -0.199118,0 -0.375045,0.01998 -0.527617,0.05995 -0.152572,0.03998 -0.316632,0.108167 -0.492476,0.20412 v 4.509802 h -1.396297 v -6.734987 h 1.396297 v 0.989602 c 0.307728,-0.407807 0.575487,-0.677314 0.803052,-0.809251 0.227563,-0.135938 0.437026,-0.204124 0.628386,-0.204125 z m 6.555155,0.02376 h 1.404048 v 3.34088 c 0,0.339839 0.0067,0.623734 0.01963,0.851628 0.01551,0.223893 0.04905,0.409657 0.10077,0.557588 0.04913,0.147931 0.122907,0.255527 0.221173,0.323496 0.100854,0.06797 0.240667,0.102317 0.419097,0.102319 0.118954,0 0.25051,-0.03435 0.395325,-0.102319 0.144811,-0.06797 0.284625,-0.167786 0.419094,-0.299726 V 60.11297 h 1.396299 v 6.734987 h -1.396299 v -0.743622 c -0.258593,0.303856 -0.4954,0.535638 -0.710033,0.695563 -0.214632,0.155927 -0.470527,0.234096 -0.767911,0.234096 -0.480988,0 -0.851929,-0.214024 -1.113112,-0.641821 -0.258593,-0.4278 -0.388088,-1.059368 -0.388088,-1.894975 z m 22.435838,0 h 1.404049 v 3.34088 c 0,0.339839 0.0067,0.623734 0.01963,0.851628 0.0155,0.223893 0.04905,0.409657 0.100769,0.557588 0.04913,0.147931 0.122909,0.255527 0.221176,0.323496 0.100851,0.06797 0.240149,0.102317 0.418578,0.102319 0.118954,0 0.251029,-0.03435 0.395841,-0.102319 0.144814,-0.06797 0.284634,-0.167786 0.419104,-0.299726 V 60.11297 h 1.39629 v 6.734987 h -1.39629 v -0.743622 c -0.2586,0.303856 -0.495407,0.535638 -0.71004,0.695563 -0.214635,0.155927 -0.47053,0.234096 -0.767913,0.234096 -0.480986,0 -0.85193,-0.214024 -1.11311,-0.641821 -0.258596,-0.4278 -0.388091,-1.059368 -0.388091,-1.894975 z m -25.794806,1.295527 c -0.134471,0 -0.25468,0.02826 -0.360703,0.08423 -0.103437,0.05597 -0.20301,0.167976 -0.298688,0.335896 -0.08534,0.155927 -0.153954,0.369433 -0.205674,0.641305 -0.04913,0.271873 -0.0739,0.613971 -0.0739,1.025777 0,0.367826 0.02217,0.68776 0.06615,0.95963 0.04396,0.267875 0.10845,0.483584 0.193786,0.647507 0.08275,0.155927 0.18129,0.270132 0.295071,0.342098 0.116369,0.07197 0.247928,0.107487 0.395325,0.107487 0.126712,0 0.24692,-0.03163 0.360704,-0.0956 0.116366,-0.06797 0.214908,-0.179969 0.295071,-0.335896 0.09051,-0.171919 0.157578,-0.378164 0.201538,-0.618051 0.04655,-0.243885 0.06976,-0.579374 0.06976,-1.007173 0,-0.395814 -0.02323,-0.72793 -0.06976,-0.995805 -0.04655,-0.267875 -0.111037,-0.48138 -0.193786,-0.641305 -0.08275,-0.163922 -0.182321,-0.280331 -0.29869,-0.3483 -0.116367,-0.06797 -0.241734,-0.101801 -0.376204,-0.101801 z m 11.287681,0.09612 c -0.367205,0 -0.642702,0.163597 -0.826304,0.491442 -0.183603,0.323847 -0.275437,0.777949 -0.275437,1.361676 0,0.647694 0.07739,1.099592 0.232545,1.355471 0.157742,0.255881 0.390938,0.383439 0.698664,0.383439 0.139642,0 0.27636,-0.03383 0.410829,-0.101801 0.134469,-0.06797 0.257257,-0.157805 0.368454,-0.269751 v -3.052527 c -0.08017,-0.05198 -0.178189,-0.0919 -0.294558,-0.11989 -0.116367,-0.03199 -0.221097,-0.04806 -0.314193,-0.04806 z m 11.190533,0.05375 c -0.131884,0 -0.26757,0.03215 -0.407212,0.09612 -0.139639,0.05997 -0.272746,0.148119 -0.399457,0.264065 v 3.388424 c 0.09309,0.05597 0.192664,0.09149 0.298688,0.107487 0.106026,0.01601 0.210756,0.02429 0.314193,0.02429 0.369792,0 0.645289,-0.165798 0.826307,-0.497644 0.181017,-0.335841 0.271301,-0.839851 0.271301,-1.511535 0,-0.655691 -0.07223,-1.131443 -0.217041,-1.427303 -0.144814,-0.29586 -0.37388,-0.443899 -0.686779,-0.443899 z M 67.845322,73.27082 h 4.138765 v 1.727544 h -2.656683 v 1.660879 h 2.462897 v 1.727544 h -2.462897 v 3.814239 h -1.482082 z m 7.156669,1.985409 c 0.76027,0 1.347383,0.319932 1.761133,0.959631 0.416338,0.639699 0.624768,1.513033 0.624768,2.620512 0,1.10748 -0.20946,1.98133 -0.628385,2.621029 -0.416338,0.635701 -1.002419,0.953431 -1.757516,0.953431 -0.755097,0 -1.342207,-0.31773 -1.761133,-0.953431 -0.416338,-0.639699 -0.62425,-1.513549 -0.62425,-2.621029 0,-1.115475 0.20946,-1.99101 0.628386,-2.626712 0.42151,-0.635701 1.007073,-0.953431 1.756997,-0.953431 z m 5.620845,0.02376 c 0.297387,0 0.571336,0.04991 0.822175,0.149862 0.250835,0.09995 0.48506,0.230233 0.70228,0.390158 v 1.840714 H 81.94937 c -0.0543,-0.07197 -0.120341,-0.15571 -0.197919,-0.251664 -0.07499,-0.09596 -0.167857,-0.18968 -0.279053,-0.281636 -0.106024,-0.08796 -0.222621,-0.160036 -0.349332,-0.216008 -0.126712,-0.05997 -0.274265,-0.08992 -0.442352,-0.08992 -0.372377,0 -0.659225,0.18356 -0.860928,0.551386 -0.19912,0.363829 -0.298691,0.859544 -0.298691,1.487247 0,0.647697 0.102151,1.139521 0.306441,1.475364 0.206878,0.335841 0.498885,0.503844 0.876432,0.503844 0.175845,0 0.333716,-0.02995 0.473358,-0.08992 0.142227,-0.06397 0.259855,-0.137732 0.352949,-0.221692 0.08792,-0.07996 0.165309,-0.164222 0.232545,-0.252182 0.06723,-0.08796 0.129659,-0.173906 0.18655,-0.257866 h 0.197921 v 1.841233 c -0.219805,0.159925 -0.450418,0.285797 -0.690914,0.377753 -0.237905,0.09596 -0.501539,0.144177 -0.791165,0.144177 -0.380135,0 -0.727861,-0.06987 -1.043347,-0.209804 -0.312899,-0.139935 -0.58582,-0.356161 -0.818555,-0.648023 -0.23015,-0.291864 -0.408657,-0.6595 -0.535368,-1.103291 -0.126712,-0.443794 -0.189651,-0.963877 -0.189651,-1.559597 0,-0.627703 0.06707,-1.169437 0.201536,-1.625222 0.137056,-0.455787 0.326913,-0.833405 0.569991,-1.133266 0.235324,-0.283866 0.507209,-0.491797 0.814938,-0.623734 0.307729,-0.131937 0.627079,-0.197921 0.95808,-0.197921 z m 10.057784,0 c 0.325831,0 0.637444,0.05211 0.934828,0.156064 0.299969,0.09995 0.534197,0.208066 0.702281,0.324012 v 1.702736 h -0.120404 c -0.206878,-0.219895 -0.443682,-0.397364 -0.710036,-0.533299 -0.263765,-0.139936 -0.531008,-0.210323 -0.802534,-0.210323 -0.224978,0 -0.415351,0.04822 -0.570508,0.144177 -0.152572,0.09595 -0.228925,0.231809 -0.228925,0.407725 0,0.159925 0.03508,0.281911 0.104902,0.365872 0.06982,0.08396 0.233881,0.167703 0.492477,0.251663 0.142227,0.04398 0.294939,0.08831 0.457853,0.132292 0.1655,0.03998 0.33111,0.09157 0.49661,0.155546 0.367205,0.147931 0.638577,0.381915 0.814419,0.701765 0.175845,0.315851 0.264068,0.711748 0.264068,1.187524 0,0.695674 -0.201724,1.257371 -0.605132,1.685168 -0.403407,0.423802 -0.955436,0.635622 -1.656228,0.635622 -0.387892,0 -0.739748,-0.056 -1.055232,-0.16795 -0.315487,-0.111947 -0.568801,-0.235616 -0.760161,-0.371551 v -1.775087 h 0.12764 c 0.06982,0.07596 0.150305,0.159708 0.240813,0.251663 0.09309,0.08796 0.223621,0.183889 0.391708,0.287838 0.144812,0.09196 0.308872,0.171813 0.492474,0.239779 0.183602,0.06397 0.380167,0.09612 0.589629,0.09612 0.274111,0 0.477383,-0.04602 0.609264,-0.137977 0.131885,-0.09595 0.197406,-0.235699 0.197406,-0.419614 0,-0.163922 -0.0387,-0.282016 -0.116274,-0.353983 -0.07758,-0.07596 -0.225128,-0.14804 -0.442349,-0.216006 -0.103439,-0.03598 -0.244282,-0.07371 -0.422714,-0.113689 -0.175845,-0.04398 -0.335777,-0.09609 -0.480589,-0.156062 -0.39565,-0.159924 -0.689208,-0.407783 -0.880568,-0.743624 -0.19136,-0.339842 -0.287321,-0.761794 -0.287321,-1.265555 0,-0.647698 0.198112,-1.185024 0.593764,-1.612823 0.398235,-0.431798 0.940978,-0.648023 1.628839,-0.648023 z m -7.649144,0.186036 h 1.404048 v 3.340365 c 0,0.339839 0.0067,0.623734 0.01963,0.851627 0.0155,0.223896 0.04905,0.409657 0.100769,0.557589 0.04913,0.147931 0.122909,0.256042 0.221173,0.324011 0.100854,0.06797 0.240149,0.101804 0.418581,0.101804 0.118954,0 0.251026,-0.03383 0.395841,-0.101804 0.144814,-0.06797 0.284625,-0.167786 0.419094,-0.299723 v -4.773869 h 1.396299 v 6.73499 H 86.010615 V 81.45739 c -0.258593,0.303858 -0.495397,0.535641 -0.710033,0.695566 -0.214632,0.155927 -0.470527,0.233577 -0.76791,0.233577 -0.480989,0 -0.85193,-0.213506 -1.11311,-0.641305 -0.258596,-0.4278 -0.388091,-1.059884 -0.388091,-1.895491 z m -8.029485,1.295527 c -0.134469,0 -0.254677,0.02774 -0.360701,0.08372 -0.103439,0.05597 -0.20301,0.167976 -0.298691,0.335897 -0.08534,0.155926 -0.153953,0.369948 -0.205671,0.64182 -0.04913,0.271873 -0.07338,0.613455 -0.07338,1.025261 0,0.367826 0.02167,0.68776 0.06563,0.959633 0.04396,0.267872 0.108968,0.483582 0.194304,0.647504 0.08275,0.155927 0.180774,0.270132 0.294556,0.342099 0.116369,0.07197 0.248443,0.108002 0.39584,0.108002 0.126712,0 0.24692,-0.03215 0.360704,-0.09612 0.116366,-0.06797 0.214389,-0.17997 0.294555,-0.335897 0.09051,-0.171918 0.158094,-0.377645 0.202055,-0.617532 0.04654,-0.243888 0.06976,-0.579893 0.06976,-1.007692 0,-0.395814 -0.02323,-0.727414 -0.06976,-0.995289 -0.04655,-0.267872 -0.111554,-0.481896 -0.194305,-0.641821 -0.08275,-0.163922 -0.182322,-0.279812 -0.298688,-0.347781 -0.116369,-0.06797 -0.241737,-0.101804 -0.376206,-0.101804 z"
         id="rect6784"
         inkscape:connector-curvature="0" />
    </g>
    <g
       id="layer3"
       inkscape:label="Layer 3"
       style="display:inline"
       transform="matrix(3.7795276,0,0,3.7795276,-162.50747,-118.61358)" />
  </g>
</svg>
