<?xml version="1.0" encoding="UTF-8" standalone="no"?>
<!-- Created with Inkscape (http://www.inkscape.org/) -->

<svg
   xmlns:dc="http://purl.org/dc/elements/1.1/"
   xmlns:cc="http://creativecommons.org/ns#"
   xmlns:rdf="http://www.w3.org/1999/02/22-rdf-syntax-ns#"
   xmlns:svg="http://www.w3.org/2000/svg"
   xmlns="http://www.w3.org/2000/svg"
   xmlns:sodipodi="http://sodipodi.sourceforge.net/DTD/sodipodi-0.dtd"
   xmlns:inkscape="http://www.inkscape.org/namespaces/inkscape"
   width="154.58281mm"
   height="29.424561mm"
   viewBox="0 0 154.58281 29.424561"
   version="1.1"
   id="svg8"
   inkscape:version="0.92.4 (5da689c313, 2019-01-14)"
   sodipodi:docname="ThroughputFocus_Logo.svg">
  <defs
     id="defs2">
    <filter
       style="color-interpolation-filters:sRGB"
       inkscape:label="Drop Shadow"
       id="filter6000">
      <feFlood
         flood-opacity="0.498039"
         flood-color="rgb(0,0,0)"
         result="flood"
         id="feFlood5990" />
      <feComposite
         in="flood"
         in2="SourceGraphic"
         operator="in"
         result="composite1"
         id="feComposite5992" />
      <feGaussianBlur
         in="composite1"
         stdDeviation="1.5"
         result="blur"
         id="feGaussianBlur5994" />
      <feOffset
         dx="2"
         dy="2"
         result="offset"
         id="feOffset5996" />
      <feComposite
         in="SourceGraphic"
         in2="offset"
         operator="over"
         result="composite2"
         id="feComposite5998" />
    </filter>
  </defs>
  <sodipodi:namedview
     id="base"
     pagecolor="#ffffff"
     bordercolor="#666666"
     borderopacity="1.0"
     inkscape:pageopacity="0.0"
     inkscape:pageshadow="2"
     inkscape:zoom="1.4"
     inkscape:cx="229.7588"
     inkscape:cy="-68.731976"
     inkscape:document-units="mm"
     inkscape:current-layer="layer1"
     showgrid="false"
     fit-margin-top="0"
     fit-margin-left="0"
     fit-margin-right="0"
     fit-margin-bottom="0"
     inkscape:window-width="3072"
     inkscape:window-height="1634"
     inkscape:window-x="2293"
     inkscape:window-y="-11"
     inkscape:window-maximized="1" />
  <metadata
     id="metadata5">
    <rdf:RDF>
      <cc:Work
         rdf:about="">
        <dc:format>image/svg+xml</dc:format>
        <dc:type
           rdf:resource="http://purl.org/dc/dcmitype/StillImage" />
        <dc:title></dc:title>
      </cc:Work>
    </rdf:RDF>
  </metadata>
  <g
     inkscape:label="Layer 1"
     inkscape:groupmode="layer"
     id="layer1"
     transform="translate(-10.010758,-36.651509)">
    <path
       style="fill:#f3ed0d;fill-opacity:1;stroke:#000000;stroke-width:0.85286611;stroke-opacity:1;filter:url(#filter6000)"
       d="m 510.2168,147.79297 -0.0176,14.48437 -113.98438,-1.26367 -19.31836,19.79102 -18.29687,-18.27539 -272.076172,-1.00977 v 68.5 l 272.279292,-0.50391 19.35157,-17.70703 18.37304,17.70703 112.91407,-0.50585 0.17382,11.45898 63.78321,-40.52539 z m -384.4375,22.78125 h 7.50195 v 14.89453 c 1.33357,-1.33706 2.61155,-2.36112 3.83398,-3.07422 1.23633,-0.7131 2.60521,-1.07031 4.10547,-1.07031 2.52822,0 4.49911,0.94427 5.91602,2.83398 1.4308,1.88972 2.14648,4.71496 2.14648,8.47657 v 19.54882 h -7.54297 v -14.89453 c 0,-1.21227 -0.0473,-2.41688 -0.14453,-3.61133 -0.0972,-1.21227 -0.26384,-2.10334 -0.5,-2.67382 -0.27782,-0.65962 -0.6887,-1.1403 -1.23047,-1.44336 -0.52787,-0.30307 -1.27001,-0.45508 -2.22851,-0.45508 -0.68068,0 -1.37553,0.14249 -2.08399,0.42773 -0.69456,0.28524 -1.45189,0.74128 -2.27148,1.36524 v 21.28515 h -7.50195 z m 141.27539,0 h 7.5 v 14.89453 c 1.33356,-1.33706 2.61155,-2.36112 3.83398,-3.07422 1.23633,-0.7131 2.60521,-1.07031 4.10547,-1.07031 2.52822,0 4.50106,0.94427 5.91797,2.83398 1.4308,1.88972 2.14648,4.71496 2.14648,8.47657 v 19.54882 h -7.54297 v -14.89453 c 0,-1.21227 -0.0492,-2.41688 -0.14648,-3.61133 -0.0972,-1.21227 -0.26385,-2.10334 -0.5,-2.67382 -0.27783,-0.65962 -0.68675,-1.1403 -1.22852,-1.44336 -0.52786,-0.30307 -1.27196,-0.45508 -2.23046,-0.45508 -0.68068,0 -1.37553,0.14249 -2.08399,0.42773 -0.69456,0.28524 -1.4519,0.74128 -2.27148,1.36524 v 21.28515 h -7.5 z m -173.050784,1.79101 h 27.378904 v 7.70118 h -9.68945 v 32.11718 h -8 v -32.11718 h -9.689454 z m 298.156254,0 h 22.23242 v 7.70118 h -14.27344 v 7.4082 h 13.23047 v 7.70117 h -13.23047 v 17.00781 h -7.95898 z m -33.98633,1.20313 h 7.50195 v 8.58398 h 7.02149 v 6.52539 h -7.02149 v 10.64258 c 0,1.05182 0.008,1.97145 0.0215,2.75586 0.0139,0.78441 0.12366,1.48737 0.33203,2.11133 0.19448,0.62396 0.53529,1.12367 1.02148,1.49805 0.50009,0.35655 1.22336,0.53515 2.16797,0.53515 0.38896,0 0.89442,-0.10833 1.51953,-0.32226 0.639,-0.21393 1.08394,-0.40962 1.33399,-0.58789 h 0.625 v 6.60547 c -0.8057,0.26741 -1.65957,0.47261 -2.5625,0.61523 -0.90294,0.16045 -2.00672,0.24023 -3.3125,0.24023 -2.91718,0 -5.09264,-0.7581 -6.52344,-2.27343 -1.41692,-1.51534 -2.125,-4.10879 -2.125,-7.78125 v -14.03907 h -3.08399 v -6.52539 h 3.08399 z m -169.61328,7.64844 c 4.08404,0 7.23832,1.42689 9.46093,4.27929 2.23651,2.8524 3.35547,6.74733 3.35547,11.68555 0,4.93822 -1.12656,8.83315 -3.37695,11.68555 -2.2365,2.83457 -5.38319,4.25195 -9.43945,4.25195 -4.05627,0 -7.2086,-1.41738 -9.45899,-4.25195 -2.2365,-2.8524 -3.35547,-6.74733 -3.35547,-11.68555 0,-4.97387 1.12656,-8.87832 3.37696,-11.71289 2.26428,-2.83457 5.40902,-4.25195 9.4375,-4.25195 z m 242.04297,0 c 4.08404,0 7.23832,1.42689 9.46093,4.27929 2.2365,2.8524 3.35352,6.74733 3.35352,11.68555 0,4.93822 -1.12461,8.83315 -3.375,11.68555 -2.2365,2.83457 -5.38319,4.25195 -9.43945,4.25195 -4.05627,0 -7.21055,-1.41738 -9.46094,-4.25195 -2.2365,-2.8524 -3.35352,-6.74733 -3.35352,-11.68555 0,-4.97387 1.12461,-8.87832 3.375,-11.71289 2.26429,-2.83457 5.41098,-4.25195 9.43946,-4.25195 z m -184.44922,0.10742 c 1.26411,0 2.41149,0.19568 3.43945,0.58789 1.04185,0.37438 1.98466,0.90068 2.83203,1.57812 l 0.27149,-1.33789 h 7.27148 v 26.58204 c 0,2.81674 -0.31239,5.18791 -0.9375,7.11328 -0.62511,1.92537 -1.4998,3.43205 -2.625,4.51953 -1.1252,1.1053 -2.48648,1.89756 -4.08398,2.3789 -1.58361,0.49917 -3.37466,0.74805 -5.375,0.74805 -1.62529,0 -3.23085,-0.12346 -4.81446,-0.37305 -1.56972,-0.24958 -2.931,-0.5536 -4.08398,-0.91015 v -7.51367 h 0.91797 c 0.91682,0.46351 2.03384,0.88148 3.35351,1.25585 1.31968,0.39221 2.50112,0.58985 3.54297,0.58985 1.38913,0 2.51374,-0.16909 3.375,-0.50781 0.87515,-0.3209 1.54159,-0.78449 2,-1.39063 0.43063,-0.57048 0.74302,-1.30198 0.9375,-2.19336 0.19448,-0.89137 0.29297,-1.96106 0.29297,-3.20898 v -0.5625 c -0.90294,0.94485 -1.90259,1.69344 -3,2.24609 -1.09741,0.55265 -2.32051,0.83008 -3.66797,0.83008 -3.27835,0 -5.8059,-1.26537 -7.58398,-3.79688 -1.77809,-2.5315 -2.66797,-6.38276 -2.66797,-11.55273 0,-2.47802 0.27074,-4.61739 0.8125,-6.41797 0.54176,-1.80058 1.30668,-3.36997 2.29297,-4.70703 0.91682,-1.24792 2.04143,-2.21879 3.375,-2.91406 1.34745,-0.69527 2.72197,-1.04297 4.125,-1.04297 z m 66.51172,0 c 2.91717,0 5.18157,1.37175 6.79296,4.11719 1.62529,2.74543 2.4375,6.5169 2.4375,11.3125 0,2.47802 -0.2972,4.73329 -0.89453,6.76562 -0.58343,2.03234 -1.35595,3.70811 -2.31445,5.02735 -1.00017,1.39054 -2.13238,2.44315 -3.39648,3.15624 -1.26411,0.7131 -2.61781,1.06836 -4.0625,1.06836 -1.33357,0 -2.46577,-0.18617 -3.39649,-0.56054 -0.93072,-0.35655 -1.88308,-0.86578 -2.85547,-1.52539 v 12.51562 h -7.5 v -41.04883 h 7.5 v 3.12891 c 1.15298,-1.17661 2.32683,-2.1304 3.52149,-2.86133 1.20854,-0.73093 2.59825,-1.0957 4.16797,-1.0957 z m 148.13086,0 c 1.5975,0 3.06855,0.22228 4.41601,0.66797 1.34746,0.44568 2.60462,1.02518 3.77149,1.73828 v 8.20898 h -1.0625 c -0.29172,-0.32089 -0.64577,-0.69518 -1.0625,-1.12304 -0.40285,-0.42786 -0.90268,-0.84583 -1.5,-1.25586 -0.56955,-0.39221 -1.19433,-0.71331 -1.875,-0.96289 -0.68068,-0.26742 -1.47207,-0.40039 -2.375,-0.40039 -2.00035,0 -3.54344,0.81885 -4.62696,2.45898 -1.06963,1.6223 -1.60351,3.8339 -1.60351,6.63281 0,2.88806 0.54907,5.08062 1.64648,6.57813 1.11131,1.49751 2.68085,2.24609 4.70899,2.24609 0.9446,0 1.79088,-0.13298 2.54101,-0.40039 0.76402,-0.28524 1.3964,-0.61586 1.89649,-0.99023 0.4723,-0.35655 0.88882,-0.73085 1.25,-1.12305 0.36117,-0.39221 0.69439,-0.77601 1,-1.15039 h 1.0625 v 8.21094 c -1.18077,0.7131 -2.4171,1.27356 -3.70899,1.68359 -1.278,0.42786 -2.69417,0.64258 -4.25,0.64258 -2.04202,0 -3.91073,-0.31159 -5.60547,-0.93555 -1.68085,-0.62396 -3.14626,-1.58726 -4.39648,-2.88867 -1.23633,-1.30141 -2.19433,-2.94107 -2.875,-4.91992 -0.68068,-1.97885 -1.02149,-4.29683 -1.02149,-6.95313 0,-2.79891 0.36164,-5.21571 1.08399,-7.24804 0.73624,-2.03234 1.75671,-3.71568 3.0625,-5.05274 1.26411,-1.26575 2.72388,-2.19294 4.37695,-2.78125 1.65307,-0.58831 3.3684,-0.88281 5.14649,-0.88281 z m 54.02929,0 c 1.75031,0 3.42399,0.2318 5.02149,0.69531 1.61139,0.44569 2.86855,0.92636 3.77148,1.44336 v 7.5957 h -0.64453 c -1.11131,-0.98051 -2.38365,-1.77472 -3.81445,-2.38086 -1.41692,-0.62396 -2.85392,-0.93554 -4.3125,-0.93554 -1.20855,0 -2.22903,0.21472 -3.0625,0.64258 -0.81959,0.42786 -1.23047,1.03395 -1.23047,1.81835 0,0.7131 0.18743,1.25649 0.5625,1.63086 0.37506,0.37438 1.25735,0.74867 2.64648,1.12305 0.76402,0.1961 1.58383,0.39179 2.45899,0.58789 0.88904,0.17828 1.77892,0.41007 2.66796,0.69531 1.97257,0.65962 3.4304,1.70271 4.375,3.12891 0.94461,1.40837 1.41602,3.17345 1.41602,5.29492 0,3.10199 -1.08296,5.60613 -3.25,7.51367 -2.16704,1.88972 -5.13194,2.83399 -8.89648,2.83399 -2.0837,0 -3.97323,-0.24888 -5.66797,-0.74805 -1.69474,-0.49917 -3.05603,-1.05207 -4.08399,-1.6582 v -7.91602 h 0.6875 c 0.37507,0.33873 0.80482,0.71497 1.29102,1.125 0.50009,0.39221 1.20253,0.81969 2.10547,1.28321 0.77791,0.41003 1.6602,0.76529 2.64648,1.06836 0.98628,0.28524 2.04082,0.42773 3.16602,0.42773 1.47248,0 2.56303,-0.20325 3.27148,-0.61328 0.70846,-0.42786 1.0625,-1.05298 1.0625,-1.87305 0,-0.73093 -0.20826,-1.25723 -0.625,-1.57812 -0.41674,-0.33873 -1.20813,-0.65983 -2.375,-0.96289 -0.55565,-0.16045 -1.31298,-0.32954 -2.27148,-0.50782 -0.94461,-0.1961 -1.80607,-0.4279 -2.58399,-0.69531 -2.12537,-0.7131 -3.70056,-1.81694 -4.72851,-3.31445 -1.02796,-1.51534 -1.54297,-3.39632 -1.54297,-5.64258 0,-2.88805 1.06213,-5.28582 3.1875,-7.19336 2.13926,-1.92537 5.05686,-2.88867 8.75195,-2.88867 z m -343.43359,0.72266 c 0.26393,-10e-6 0.56114,0.008 0.89453,0.0254 0.33339,0.0178 0.62496,0.0444 0.875,0.0801 v 9.17383 h -0.66602 c -0.3195,-0.14262 -0.83256,-0.25095 -1.54101,-0.32226 -0.70846,-0.0713 -1.29918,-0.10547 -1.77149,-0.10547 -1.06963,0 -2.01439,0.0874 -2.83398,0.26562 -0.81959,0.17828 -1.70188,0.4823 -2.64649,0.91016 v 20.10937 h -7.50195 v -30.03125 h 7.50195 v 4.41211 c 1.65307,-1.8184 3.09007,-3.02106 4.3125,-3.60937 1.22244,-0.60614 2.349,-0.90821 3.37696,-0.9082 z m 35.21289,0.10546 h 7.54297 v 14.89649 c 0,1.51534 0.036,2.78071 0.10547,3.79687 0.0833,0.99834 0.26319,1.82671 0.54101,2.48633 0.26394,0.65962 0.65963,1.14029 1.1875,1.44336 0.54176,0.30307 1.2915,0.45508 2.25,0.45508 0.639,0 1.34904,-0.15201 2.12696,-0.45508 0.77791,-0.30307 1.52765,-0.74763 2.25,-1.33594 v -21.28711 h 7.5 v 30.03125 h -7.5 v -3.3164 c -1.38914,1.35489 -2.66148,2.38846 -3.81446,3.10156 -1.15298,0.69527 -2.5275,1.04297 -4.125,1.04297 -2.58378,0 -4.57744,-0.95379 -5.98047,-2.86133 -1.38913,-1.90754 -2.08398,-4.72327 -2.08398,-8.44922 z m 120.52148,0 h 7.54297 v 14.89649 c 0,1.51534 0.0341,2.78071 0.10352,3.79687 0.0833,0.99834 0.26514,1.82671 0.54297,2.48633 0.26393,0.65962 0.65963,1.14029 1.1875,1.44336 0.54176,0.30307 1.2915,0.45508 2.25,0.45508 0.639,0 1.34708,-0.15201 2.125,-0.45508 0.77791,-0.30307 1.5296,-0.74763 2.25195,-1.33594 v -21.28711 h 7.5 v 30.03125 h -7.5 v -3.3164 c -1.38913,1.35489 -2.66148,2.38846 -3.81445,3.10156 -1.15298,0.69527 -2.5275,1.04297 -4.125,1.04297 -2.58379,0 -4.57745,-0.95379 -5.98047,-2.86133 -1.38913,-1.90754 -2.08399,-4.72327 -2.08399,-8.44922 z m 146.60938,0 h 7.54297 v 14.89649 c 0,1.51534 0.0341,2.78071 0.10351,3.79687 0.0833,0.99834 0.26515,1.82671 0.54297,2.48633 0.26394,0.65962 0.65963,1.14029 1.1875,1.44336 0.54176,0.30307 1.2915,0.45508 2.25,0.45508 0.639,0 1.34709,-0.15201 2.125,-0.45508 0.77791,-0.30307 1.52765,-0.74763 2.25,-1.33594 v -21.28711 h 7.50195 v 30.03125 h -7.50195 v -3.3164 c -1.38913,1.35489 -2.65952,2.38846 -3.8125,3.10156 -1.15298,0.69527 -2.5275,1.04297 -4.125,1.04297 -2.58378,0 -4.57745,-0.95379 -5.98047,-2.86133 -1.38913,-1.90754 -2.08398,-4.72327 -2.08398,-8.44922 z m -285.17578,5.77735 c -0.72235,0 -1.36796,0.12346 -1.9375,0.37304 -0.55566,0.24959 -1.08954,0.7493 -1.60352,1.49805 -0.45841,0.69527 -0.82764,1.64906 -1.10547,2.86133 -0.26393,1.21227 -0.39453,2.73603 -0.39453,4.57227 0,1.64012 0.11736,3.06702 0.35352,4.27929 0.23615,1.19444 0.5826,2.15775 1.04101,2.88867 0.44452,0.69528 0.97277,1.20255 1.58399,1.52344 0.62511,0.3209 1.33319,0.48242 2.125,0.48242 0.68067,0 1.32823,-0.14249 1.93945,-0.42773 0.62511,-0.30307 1.1514,-0.80278 1.58203,-1.49805 0.4862,-0.76658 0.84783,-1.68425 1.08399,-2.7539 0.25004,-1.08748 0.375,-2.5866 0.375,-4.49414 0,-1.76493 -0.12496,-3.24306 -0.375,-4.4375 -0.25005,-1.19445 -0.5965,-2.14823 -1.04102,-2.86133 -0.44452,-0.73093 -0.98036,-1.24772 -1.60547,-1.55078 -0.62511,-0.30307 -1.29914,-0.45508 -2.02148,-0.45508 z m 242.04297,0 c -0.72235,0 -1.36796,0.12346 -1.9375,0.37304 -0.55566,0.24959 -1.09149,0.7493 -1.60547,1.49805 -0.45842,0.69527 -0.82569,1.64906 -1.10352,2.86133 -0.26393,1.21227 -0.39648,2.73603 -0.39648,4.57227 0,1.64012 0.11931,3.06702 0.35547,4.27929 0.23615,1.19444 0.5826,2.15775 1.04101,2.88867 0.44452,0.69528 0.97277,1.20255 1.58399,1.52344 0.6251,0.3209 1.33319,0.48242 2.125,0.48242 0.68067,0 1.32628,-0.14249 1.9375,-0.42773 0.6251,-0.30307 1.15335,-0.80278 1.58398,-1.49805 0.4862,-0.76658 0.84783,-1.68425 1.08398,-2.7539 0.25005,-1.08748 0.375,-2.5866 0.375,-4.49414 0,-1.76493 -0.12495,-3.24306 -0.375,-4.4375 -0.25004,-1.19445 -0.59844,-2.14823 -1.04296,-2.86133 -0.44453,-0.73093 -0.97841,-1.24772 -1.60352,-1.55078 -0.62511,-0.30307 -1.29914,-0.45508 -2.02148,-0.45508 z m -181.40625,0.42773 c -1.97257,0 -3.45317,0.73151 -4.43946,2.19336 -0.98628,1.44403 -1.47851,3.4675 -1.47851,6.07031 0,2.88806 0.41652,4.90201 1.25,6.04297 0.84737,1.14096 2.09693,1.71094 3.75,1.71094 0.75013,0 1.48663,-0.15201 2.20898,-0.45508 0.72235,-0.30307 1.38314,-0.70395 1.98047,-1.20312 v -13.61133 c -0.43063,-0.23176 -0.95888,-0.41037 -1.58398,-0.53516 -0.62511,-0.14262 -1.18742,-0.21289 -1.6875,-0.21289 z m 60.11523,0.24024 c -0.70846,0 -1.43932,0.14249 -2.18945,0.42773 -0.75013,0.26741 -1.46581,0.66074 -2.14649,1.17773 v 15.10743 c 0.50009,0.24958 1.03593,0.41111 1.60547,0.48242 0.56954,0.0713 1.13185,0.10547 1.6875,0.10547 1.98646,0 3.46511,-0.73907 4.4375,-2.21875 0.97239,-1.49751 1.45899,-3.74326 1.45899,-6.73828 0,-2.92371 -0.38811,-5.046 -1.16602,-6.36524 -0.77791,-1.31923 -2.00665,-1.97851 -3.6875,-1.97851 z"
       transform="scale(0.26458333)"
       id="rect3713"
       inkscape:connector-curvature="0" />
    <text
       xml:space="preserve"
       style="font-style:normal;font-variant:normal;font-weight:bold;font-stretch:normal;font-size:14.11111069px;line-height:1.25;font-family:sans-serif;-inkscape-font-specification:'sans-serif Bold';letter-spacing:0px;word-spacing:0px;fill:#000000;fill-opacity:1;stroke:none;stroke-width:0.26458332"
       x="25.256971"
       y="40.087166"
       id="text3718"><tspan
         sodipodi:role="line"
         id="tspan3716"
         x="25.256971"
         y="52.961159"
         style="font-style:normal;font-variant:normal;font-weight:bold;font-stretch:normal;font-size:14.11111069px;font-family:sans-serif;-inkscape-font-specification:'sans-serif Bold';stroke-width:0.26458332" /></text>
  </g>
</svg>
