<?xml version="1.0" standalone="no"?><svg xmlns="http://www.w3.org/2000/svg" viewBox="0 0 1440 320"><path fill="#ffd700" fill-opacity="1" d="M0,288L24,288C48,288,96,288,144,288C192,288,240,288,288,288C336,288,384,288,432,293.3C480,299,528,309,576,298.7C624,288,672,256,720,240C768,224,816,224,864,229.3C912,235,960,245,1008,234.7C1056,224,1104,192,1152,160C1200,128,1248,96,1296,80C1344,64,1392,64,1416,64L1440,64L1440,0L1416,0C1392,0,1344,0,1296,0C1248,0,1200,0,1152,0C1104,0,1056,0,1008,0C960,0,912,0,864,0C816,0,768,0,720,0C672,0,624,0,576,0C528,0,480,0,432,0C384,0,336,0,288,0C240,0,192,0,144,0C96,0,48,0,24,0L0,0Z"></path></svg>